<svg width="334" height="236" viewBox="0 0 334 236" fill="none" xmlns="http://www.w3.org/2000/svg">
<g opacity="0.5">
<path opacity="0.1" d="M111.844 235.185C128.041 235.185 141.171 233.081 141.171 230.484C141.171 227.887 128.041 225.782 111.844 225.782C95.6468 225.782 82.5165 227.887 82.5165 230.484C82.5165 233.081 95.6468 235.185 111.844 235.185Z" fill="#587EEC"/>
<path opacity="0.1" d="M271.263 235.317C291.474 235.317 307.859 233.213 307.859 230.616C307.859 228.019 291.474 225.915 271.263 225.915C251.052 225.915 234.667 228.019 234.667 230.616C234.667 233.213 251.052 235.317 271.263 235.317Z" fill="#587EEC"/>
<path opacity="0.1" d="M5.43591 101.772H35.9822V143.328H7.67218C7.59694 143.755 7.5247 144.184 7.44645 144.614H35.9822V178.128C35.931 178.113 35.8859 178.095 35.8377 178.077C35.0311 177.758 34.2305 177.422 33.4299 177.061L32.9183 176.83C32.1156 176.452 31.313 176.051 30.5104 175.628C30.2305 175.481 29.9506 175.328 29.6737 175.172C25.218 172.681 21.1702 169.524 17.6707 165.811C17.5684 165.712 17.472 165.607 17.3697 165.511C16.8821 164.982 16.4036 164.447 15.9401 163.9L15.4284 163.3C14.8806 162.63 14.3509 161.942 13.8362 161.245C13.761 161.143 13.6887 161.04 13.6105 160.944C11.5173 158.047 9.77933 154.911 8.43366 151.601C8.39152 151.502 8.3554 151.394 8.31627 151.301C7.90293 150.24 7.53674 149.168 7.2177 148.087C7.07925 147.633 6.94682 147.185 6.83245 146.714C6.79031 146.575 6.7542 146.44 6.72109 146.305C5.01153 139.645 4.80988 132.726 4.80988 125.856C4.80988 125.054 4.80988 124.249 4.80988 123.453C4.80988 120.674 4.84298 117.877 4.89114 115.083C4.89114 114.359 4.92124 113.638 4.93629 112.911C4.97842 111.067 5.03862 109.222 5.11687 107.378C5.13493 106.864 5.15901 106.353 5.1861 105.842C5.1861 105.548 5.20115 105.254 5.23125 104.959C5.30348 103.89 5.36368 102.829 5.43591 101.772Z" fill="#587EEC"/>
<path opacity="0.1" d="M35.9822 55.5022H19.2267C21.9504 51.2471 24.9264 47.1582 28.1387 43.2573C30.6278 40.2051 33.2553 37.2311 35.9822 34.3651V55.5022Z" fill="#587EEC"/>
<path opacity="0.1" d="M35.9822 56.788V100.486H5.53223C5.53223 100.36 5.55329 100.231 5.56232 100.105C5.58941 99.7591 5.6165 99.4136 5.6466 99.0711C5.67971 98.6686 5.71582 98.263 5.75495 97.8695C5.79408 97.4759 5.83621 96.9953 5.88136 96.5597C5.92651 96.1241 5.96864 95.6825 6.01981 95.2469C6.07098 94.8113 6.11612 94.3757 6.1703 93.9431C6.22448 93.5105 6.27263 93.0719 6.32982 92.6393C6.37497 92.2788 6.42312 91.9213 6.47128 91.5608C6.5405 91.0531 6.61274 90.5424 6.69099 90.0377C6.69099 89.9626 6.71206 89.8845 6.7241 89.8124C7.27344 86.1178 8.02196 82.4555 8.96639 78.8413C9.95498 75.05 11.2174 71.3352 12.7437 67.726C14.3658 63.9503 16.2652 60.2994 18.4261 56.803L35.9822 56.788Z" fill="#587EEC"/>
<path opacity="0.1" d="M43.2749 101.769V143.328H108.518V101.769H43.2749ZM43.2749 144.611V180.3C43.6481 180.378 44.0183 180.453 44.3855 180.516C44.8851 180.612 45.3818 180.7 45.8904 180.775C45.9867 180.79 46.086 180.805 46.1914 180.814C46.39 180.847 46.5947 180.874 46.7933 180.901C47.296 180.97 47.7956 181.027 48.2982 181.072C48.536 181.096 48.7768 181.117 49.0176 181.135L49.5985 181.18C49.9145 181.204 50.2275 181.222 50.5375 181.231C50.7301 181.231 50.9228 181.249 51.1214 181.255C51.2719 181.255 51.4224 181.255 51.5789 181.255C51.7354 181.255 51.9581 181.255 52.1477 181.255C52.4066 181.255 52.6654 181.255 52.9213 181.255H53.2674C53.5262 181.255 53.7851 181.255 54.0409 181.231H54.059C54.2365 181.231 54.4171 181.231 54.5977 181.207C54.6478 181.21 54.6981 181.21 54.7482 181.207C54.8987 181.207 55.0492 181.207 55.1936 181.186H55.299L56.3073 181.108C56.6383 181.078 56.9724 181.039 57.3095 181.003L57.9958 180.922C60.7876 180.531 63.5483 179.945 66.2576 179.167C72.3434 177.473 78.2967 175.103 84.3795 173.366C92.2441 171.128 100.933 170.029 108.533 172.766V144.611H43.2749ZM108.518 55.5023V0.175201C101.375 0.0979576 94.2514 0.931846 87.3201 2.65662C70.7994 6.79931 55.9762 15.7847 43.2749 27.2605V55.4993H46.5495V56.7821H43.2749V100.486H108.518V56.7851H59.9943V55.5023H108.518ZM192.319 36.8136C188.232 36.6694 184.169 35.3776 180.494 33.3829C173.466 29.5676 167.853 23.6765 161.58 18.7047C148.548 8.34945 132.386 2.10085 115.805 0.550718V55.5023H208.942L209.174 55.259L192.319 36.8136ZM200.804 35.3115L209.8 45.1651V32.728C206.787 33.1005 204.148 33.9867 200.816 35.2995L200.804 35.3115ZM209.8 189.162V144.611H190.631C190.58 144.422 190.529 144.229 190.468 144.037C190.526 144.229 190.574 144.422 190.628 144.611H115.817V176.83C116.527 177.356 117.228 177.909 117.924 178.47C118.673 179.071 119.413 179.705 120.157 180.327L120.906 180.946C121.264 181.246 121.626 181.547 121.99 181.829C122.712 182.414 123.441 182.991 124.178 183.559C124.542 183.86 124.915 184.13 125.285 184.413C131.163 188.898 137.363 192.945 143.835 196.522C145.285 197.323 146.749 198.105 148.226 198.869C149.21 199.37 150.2 199.869 151.194 200.353C152.687 201.08 154.191 201.781 155.708 202.455C169.694 208.722 184.482 213.021 199.651 215.232C203.02 215.729 206.402 216.119 209.797 216.404V189.159H210.098L209.8 189.162ZM115.817 56.7851V100.486H209.812V56.7851H115.817ZM115.817 101.769V143.328H209.812V101.769H115.817ZM217.108 32.6739V46.547L228.59 33.9717C224.786 33.3589 220.958 32.9213 217.108 32.6589V32.6739ZM217.108 101.784V143.328H308.53V101.769L217.108 101.784ZM308.196 192.461L308.518 144.611H217.108V216.881C222.997 217.128 228.894 217.058 234.775 216.671H234.878C237.687 216.495 240.483 216.238 243.266 215.902H243.329C258.177 214.177 272.695 210.311 286.429 204.423L308.196 192.461ZM326.158 108.612C325.815 107.804 325.457 107.002 325.093 106.209C324.413 104.707 323.693 103.247 322.953 101.787H315.82V143.328H333.854C333.845 131.564 330.863 119.547 326.167 108.597L326.158 108.612ZM315.82 144.626V185.783C320.9 180.922 325.192 175.361 328.283 169.004C332 161.35 333.701 153.062 333.839 144.62L315.82 144.626ZM315.82 89.6743V100.489H322.285C320.329 96.7662 318.174 93.1511 315.829 89.6593L315.82 89.6743ZM253.818 40.8271C253.343 40.6469 252.867 40.4636 252.389 40.2864C247.342 38.426 242.184 36.8789 236.945 35.654L219.374 54.9015L219.037 55.259L219.263 55.5053H281.8C273.091 49.5212 263.701 44.5891 253.827 40.8121L253.818 40.8271ZM283.633 56.8001H218.39L217.108 57.9717V100.486H228.347H228.365H308.542V79.8929C301.289 71.1376 292.918 63.3688 283.642 56.7851L283.633 56.8001Z" fill="#587EEC"/>
<path opacity="0.1" d="M35.9822 78.8293V100.486H5.53223C5.53223 100.36 5.55329 100.231 5.56232 100.105C5.58941 99.7591 5.6165 99.4137 5.6466 99.0712C5.67971 98.6686 5.71582 98.2631 5.75495 97.8695C5.79408 97.476 5.83621 96.9953 5.88136 96.5597C5.92651 96.1241 5.96864 95.6825 6.01981 95.2469C6.07098 94.8113 6.11612 94.3757 6.1703 93.9431C6.22448 93.5105 6.27263 93.0719 6.32982 92.6393C6.37497 92.2789 6.42312 91.9214 6.47128 91.5609C6.5405 91.0532 6.61274 90.5425 6.69099 90.0378C6.69099 89.9627 6.71206 89.8846 6.7241 89.8125C7.27344 86.1179 8.02196 82.4555 8.96639 78.8414L35.9822 78.8293Z" fill="#587EEC"/>
<path opacity="0.1" d="M5.43591 101.772H35.9822V143.328H7.67218C7.59694 143.755 7.5247 144.184 7.44645 144.614H35.9822V178.128C35.931 178.113 35.8859 178.095 35.8377 178.077C35.0311 177.758 34.2305 177.422 33.4299 177.061L32.9183 176.83C32.1156 176.452 31.313 176.051 30.5104 175.628C30.2305 175.481 29.9506 175.328 29.6737 175.172C25.218 172.681 21.1702 169.524 17.6707 165.811C17.5684 165.712 17.472 165.607 17.3697 165.511C16.8821 164.982 16.4036 164.447 15.9401 163.9L15.4284 163.3C14.8806 162.63 14.3509 161.942 13.8362 161.245C13.761 161.143 13.6887 161.04 13.6105 160.944C11.5173 158.047 9.77933 154.911 8.43366 151.601C8.39152 151.502 8.3554 151.394 8.31627 151.301C7.90293 150.24 7.53674 149.168 7.2177 148.087C7.07925 147.633 6.94682 147.185 6.83245 146.714C6.79031 146.575 6.7542 146.44 6.72109 146.305C5.01153 139.645 4.80988 132.726 4.80988 125.856C4.80988 125.054 4.80988 124.249 4.80988 123.453C4.80988 120.674 4.84298 117.877 4.89114 115.083C4.89114 114.359 4.92124 113.638 4.93629 112.911C4.97842 111.067 5.03862 109.222 5.11687 107.378C5.13493 106.864 5.15901 106.353 5.1861 105.842C5.1861 105.548 5.20115 105.254 5.23125 104.959C5.30348 103.89 5.36368 102.829 5.43591 101.772Z" fill="#587EEC"/>
<path opacity="0.1" d="M66.2426 63.0426V100.486H43.2749V63.0426H46.5495V50.3651H59.9912V63.0426H66.2426Z" fill="#587EEC"/>
<path opacity="0.1" d="M66.2425 101.769H43.2779V143.325H66.2425V101.769Z" fill="#587EEC"/>
<path opacity="0.1" d="M43.2749 144.614H66.2426V179.161C63.5333 179.938 60.7725 180.524 57.9807 180.913L57.2945 180.997C56.9574 181.036 56.6233 181.069 56.2922 181.102C55.9611 181.135 55.618 181.159 55.2839 181.18H55.1786C55.0341 181.18 54.8776 181.198 54.7362 181.201H54.5827C54.4021 181.201 54.2215 181.219 54.0409 181.225C53.7851 181.24 53.5292 181.243 53.2674 181.246C53.156 181.246 53.0507 181.246 52.9393 181.246C52.6805 181.246 52.4246 181.246 52.1658 181.246H51.597C51.4435 181.246 51.296 181.246 51.1365 181.246L50.5556 181.225C50.2546 181.225 49.9295 181.192 49.6165 181.171L49.0386 181.129L48.3193 181.063C47.8137 181.018 47.311 180.961 46.8144 180.892L46.2124 180.808L45.9115 180.766C45.4088 180.687 44.9122 180.603 44.4066 180.507C44.0364 180.444 43.6692 180.366 43.296 180.291L43.2749 144.614Z" fill="#587EEC"/>
<path opacity="0.1" d="M209.812 58.6206H190.875V100.483H209.812V58.6206Z" fill="#587EEC"/>
<path opacity="0.1" d="M209.815 101.769V143.328H115.817V125.402H165.885V135.977H190.875V101.769H209.815Z" fill="#587EEC"/>
<path opacity="0.1" d="M210.113 189.171H209.812V216.434C206.421 216.147 203.04 215.758 199.669 215.265C184.493 213.047 169.698 208.738 155.708 202.461C151.669 200.647 147.712 198.666 143.838 196.519C137.366 192.94 131.165 188.893 125.286 184.41C123.809 183.28 122.351 182.124 120.912 180.943C119.916 180.123 118.926 179.282 117.924 178.464C117.228 177.903 116.527 177.35 115.817 176.821V144.614H190.625C190.574 144.422 190.523 144.229 190.468 144.04C190.526 144.229 190.58 144.422 190.631 144.614H209.812V189.153C209.915 189.156 210.014 189.165 210.113 189.171Z" fill="#587EEC"/>
<path opacity="0.1" d="M259.203 55.5021H246.863V51.6749H252.395V40.2742C252.874 40.4484 253.352 40.6277 253.827 40.8119V51.6749H259.203V55.5021Z" fill="#587EEC"/>
<path opacity="0.1" d="M288.933 100.486H228.353C228.353 100.486 228.353 100.486 228.374 100.501L228.347 100.486H217.108V58.6235H220.292V89.5661H234.845V71.2409H246.866V56.788H259.206V71.2529H271.227V89.5781H288.933V100.486Z" fill="#587EEC"/>
<path opacity="0.1" d="M217.108 101.769V143.328H288.933V101.769H217.108ZM308.431 192.247L308.53 159.352H288.933V144.632H217.108V216.881C222.997 217.128 228.894 217.058 234.775 216.671H234.878C237.687 216.495 240.483 216.238 243.266 215.902H243.329C258.177 214.177 272.695 210.311 286.429 204.423" fill="#587EEC"/>
<path opacity="0.1" d="M317.096 144.614H333.851C333.704 153.052 332.006 161.341 328.292 168.995C325.201 175.355 320.906 180.916 315.832 185.773V159.337H317.096V144.614Z" fill="#587EEC"/>
<path opacity="0.1" d="M333.861 143.328H317.096V108.597H326.168C330.863 119.547 333.845 131.564 333.861 143.328Z" fill="#587EEC"/>
<path opacity="0.1" d="M209.815 70.2585H199.669V83.3836H209.815V70.2585Z" fill="#587EEC"/>
<path opacity="0.1" d="M209.815 97.4639H199.669V100.486H209.815V97.4639Z" fill="#587EEC"/>
<path opacity="0.1" d="M209.815 101.769H199.669V110.586H209.815V101.769Z" fill="#587EEC"/>
<path opacity="0.1" d="M209.815 124.669H199.669V137.794H209.815V124.669Z" fill="#587EEC"/>
<path opacity="0.1" d="M209.815 151.875H199.669V165H209.815V151.875Z" fill="#587EEC"/>
<path opacity="0.1" d="M209.812 189.153C209.915 189.153 210.014 189.153 210.113 189.171H209.812V192.22H199.669V179.08H209.812V189.153Z" fill="#587EEC"/>
<path opacity="0.1" d="M209.812 206.28V216.418C206.421 216.132 203.04 215.743 199.669 215.25V206.28H209.812Z" fill="#587EEC"/>
<path opacity="0.1" d="M159.299 142.364H115.817V143.328H159.299V142.364Z" fill="#587EEC"/>
<path opacity="0.1" d="M159.299 144.611H115.817V148.306H159.299V144.611Z" fill="#587EEC"/>
<path opacity="0.1" d="M159.299 160.419H115.817V166.361H159.299V160.419Z" fill="#587EEC"/>
<path opacity="0.1" d="M159.296 178.474V184.416H125.286C123.809 183.29 122.35 182.135 120.909 180.949C119.913 180.129 118.926 179.288 117.921 178.474H159.296Z" fill="#587EEC"/>
<path opacity="0.1" d="M159.296 196.525V202.461H155.705C151.67 200.645 147.714 198.663 143.838 196.516L159.296 196.525Z" fill="#587EEC"/>
<path opacity="0.1" d="M243.338 105.797H234.778V114.341H243.338V105.797Z" fill="#587EEC"/>
<path opacity="0.1" d="M58.0018 65.9897H49.442V74.5335H58.0018V65.9897Z" fill="#587EEC"/>
<path opacity="0.1" d="M58.0018 85.835H49.442V94.3787H58.0018V85.835Z" fill="#587EEC"/>
<path opacity="0.1" d="M58.0018 105.68H49.442V114.224H58.0018V105.68Z" fill="#587EEC"/>
<path opacity="0.1" d="M58.0018 125.523H49.442V134.066H58.0018V125.523Z" fill="#587EEC"/>
<path opacity="0.1" d="M58.0018 145.368H49.442V153.912H58.0018V145.368Z" fill="#587EEC"/>
<path opacity="0.1" d="M58.0018 165.213H49.442V173.757H58.0018V165.213Z" fill="#587EEC"/>
<path opacity="0.1" d="M276.015 105.797H267.456V114.341H276.015V105.797Z" fill="#587EEC"/>
<path opacity="0.1" d="M243.338 126.871H234.778V135.415H243.338V126.871Z" fill="#587EEC"/>
<path opacity="0.1" d="M276.015 126.871H267.456V135.415H276.015V126.871Z" fill="#587EEC"/>
<path opacity="0.1" d="M243.338 147.942H234.778V156.486H243.338V147.942Z" fill="#587EEC"/>
<path opacity="0.1" d="M276.015 147.942H267.456V156.486H276.015V147.942Z" fill="#587EEC"/>
<path opacity="0.1" d="M243.338 169.016H234.778V177.56H243.338V169.016Z" fill="#587EEC"/>
<path opacity="0.1" d="M276.015 169.016H267.456V177.56H276.015V169.016Z" fill="#587EEC"/>
<path opacity="0.1" d="M243.338 190.09H234.778V198.634H243.338V190.09Z" fill="#587EEC"/>
<path opacity="0.1" d="M276.015 190.09H267.456V198.634H276.015V190.09Z" fill="#587EEC"/>
<path opacity="0.1" d="M234.778 216.671V211.161H243.335V215.887L234.778 216.671Z" fill="#587EEC"/>
<path opacity="0.1" d="M6.68799 89.8065V94.6942H35.9822V89.8065H6.68799ZM9.60748 94.3878H7.21771V90.1069H9.62554L9.60748 94.3878ZM12.524 94.3878H10.1161V90.1069H12.524V94.3878ZM15.4344 94.3878H13.0266V90.1069H15.4344V94.3878ZM18.3509 94.3878H15.9461V90.1069H18.3539L18.3509 94.3878ZM21.2644 94.3878H18.8565V90.1069H21.2644V94.3878ZM24.1808 94.3878H21.773V90.1069H24.1808V94.3878ZM27.0973 94.3878H24.6895V90.1069H27.0973V94.3878ZM30.0108 94.3878H27.603V90.1069H30.0108V94.3878ZM32.9243 94.3878H30.5164V90.1069H32.9243V94.3878ZM35.8377 94.3878H33.4299V90.1069H35.8377V94.3878Z" fill="#587EEC"/>
<path opacity="0.1" d="M6.68799 104.028V108.916H35.9822V104.028H6.68799ZM9.60748 108.606H7.21771V104.338H9.62554L9.60748 108.606ZM12.524 108.606H10.1161V104.338H12.524V108.606ZM15.4344 108.606H13.0266V104.338H15.4344V108.606ZM18.3509 108.606H15.9461V104.338H18.3539L18.3509 108.606ZM21.2644 108.606H18.8565V104.338H21.2644V108.606ZM24.1808 108.606H21.773V104.338H24.1808V108.606ZM27.0973 108.606H24.6895V104.338H27.0973V108.606ZM30.0108 108.606H27.603V104.338H30.0108V108.606ZM32.9243 108.606H30.5164V104.338H32.9243V108.606ZM35.8377 108.606H33.4299V104.338H35.8377V108.606Z" fill="#587EEC"/>
<path opacity="0.1" d="M6.68799 118.255V123.152H35.9822V118.255H6.68799ZM9.60748 122.834H7.21771V118.562H9.62554L9.60748 122.834ZM12.524 122.834H10.1161V118.562H12.524V122.834ZM15.4344 122.834H13.0266V118.562H15.4344V122.834ZM18.3509 122.834H15.9461V118.562H18.3539L18.3509 122.834ZM21.2644 122.834H18.8565V118.562H21.2644V122.834ZM24.1808 122.834H21.773V118.562H24.1808V122.834ZM27.0973 122.834H24.6895V118.562H27.0973V122.834ZM30.0108 122.834H27.603V118.562H30.0108V122.834ZM32.9243 122.834H30.5164V118.562H32.9243V122.834ZM35.8377 122.834H33.4299V118.562H35.8377V122.834Z" fill="#587EEC"/>
<path opacity="0.1" d="M6.68799 132.483V137.365H35.9822V132.483H6.68799ZM9.60748 137.061H7.21771V132.786H9.62554L9.60748 137.061ZM12.524 137.061H10.1161V132.786H12.524V137.061ZM15.4344 137.061H13.0266V132.786H15.4344V137.061ZM18.3509 137.061H15.9461V132.786H18.3539L18.3509 137.061ZM21.2644 137.061H18.8565V132.786H21.2644V137.061ZM24.1808 137.061H21.773V132.786H24.1808V137.061ZM27.0973 137.061H24.6895V132.786H27.0973V137.061ZM30.0108 137.061H27.603V132.786H30.0108V137.061ZM32.9243 137.061H30.5164V132.786H32.9243V137.061ZM35.8377 137.061H33.4299V132.786H35.8377V137.061Z" fill="#587EEC"/>
<path opacity="0.1" d="M6.81439 146.708C6.93177 147.167 7.0642 147.627 7.20265 148.081V147.014H9.61048V151.286H8.32229C8.36142 151.385 8.40055 151.493 8.43967 151.586H35.9822V146.708H6.81439ZM12.533 151.286H10.1252V147.014H12.533V151.286ZM15.4434 151.286H13.0356V147.014H15.4434V151.286ZM18.3599 151.286H15.9461V147.014H18.3539L18.3599 151.286ZM21.2734 151.286H18.8656V147.014H21.2734V151.286ZM24.1899 151.286H21.782V147.014H24.1899V151.286ZM27.1064 151.286H24.6985V147.014H27.1064V151.286ZM30.0198 151.286H27.612V147.014H30.0198V151.286ZM32.9333 151.286H30.5255V147.014H32.9333V151.286ZM35.8468 151.286H33.4389V147.014H35.8468V151.286Z" fill="#587EEC"/>
<path opacity="0.1" d="M13.6165 160.935C13.6918 161.031 13.764 161.139 13.8422 161.236H15.4344V163.287C15.606 163.492 15.7745 163.696 15.9491 163.888V161.224H18.3569V165.51H17.3818C17.4781 165.61 17.5714 165.715 17.6827 165.811H35.9913V160.935H13.6165ZM21.2644 165.51H18.8565V161.242H21.2644V165.51ZM24.1809 165.51H21.773V161.242H24.1809V165.51ZM27.0973 165.51H24.6895V161.242H27.0973V165.51ZM30.0108 165.51H27.603V161.242H30.0108V165.51ZM32.9243 165.51H30.5165V161.242H32.9243V165.51ZM35.8378 165.51H33.4299V161.242H35.8378V165.51Z" fill="#587EEC"/>
<path opacity="0.1" d="M29.6857 175.16C29.9596 175.316 30.2395 175.46 30.5224 175.616V175.466H32.9302V176.818L33.4419 177.055V175.466H35.8497V178.065C35.8959 178.088 35.9443 178.106 35.9942 178.119V175.16H29.6857Z" fill="#587EEC"/>
<path opacity="0.1" d="M228.353 100.486H228.371H228.353ZM209.812 189.15H210.113H209.812ZM190.468 144.037C190.526 144.229 190.574 144.421 190.628 144.611C190.58 144.421 190.529 144.229 190.468 144.037ZM228.353 100.477H228.371H228.353ZM46.5616 55.4932V56.7759H60.0063V55.4932H46.5616ZM209.812 189.15H210.113H209.812ZM190.468 144.037C190.526 144.229 190.574 144.421 190.628 144.611C190.58 144.421 190.529 144.229 190.468 144.037ZM228.353 100.477H228.371H228.353ZM209.812 189.141H210.113H209.812ZM190.468 144.037C190.526 144.229 190.574 144.421 190.628 144.611C190.58 144.421 190.529 144.229 190.468 144.037Z" fill="#587EEC"/>
<path d="M140.202 114.23C140.202 114.23 139.016 114.065 139.016 112.34C139.016 110.616 138.167 107.395 138.167 107.395C138.167 107.38 137.433 101.787 136.419 100.898C135.404 100.008 134.101 94.7871 134.101 94.7871C134.101 94.7871 133.878 91.9542 133.424 91.3444C132.969 90.7345 132.355 89.2415 131.449 87.1116C130.544 84.9816 126.766 83.5066 126.766 83.5066C126.766 83.5066 119.937 79.5532 118.002 78.2644C117.826 78.1585 117.661 78.0347 117.511 77.8949C117.174 77.4533 115.705 77.4443 115.705 77.4443C115.552 76.4769 115.404 75.3654 115.356 74.359C115.356 74.2509 115.356 74.1427 115.341 74.0346C117.499 72.7614 119.125 70.7539 119.919 68.3808C119.955 68.2666 119.985 68.1465 120.018 68.0323C120.148 67.9898 120.267 67.9208 120.368 67.8298C120.469 67.7387 120.55 67.6276 120.605 67.5036C120.78 67.1161 120.783 66.6624 121 66.3019C121.252 65.8753 121.734 65.647 122.113 65.3256C123.07 64.5145 123.317 63.1476 123.272 61.9039C123.242 60.8975 123.079 59.8821 123.142 58.8817L123.161 58.6294C123.179 58.4792 123.2 58.329 123.227 58.1848C123.374 57.4397 123.696 56.7368 123.877 55.9978C124.057 55.2587 124.076 54.4266 123.654 53.7897C123.037 52.8554 121.752 52.6692 120.623 52.573C119.344 52.4649 118.2 52.6061 117.382 51.5456C116.999 50.9914 116.568 50.4717 116.094 49.9925C115.925 49.8363 114.288 48.8389 114.288 48.7728C112.69 48.0341 110.878 47.8954 109.186 48.3823C108.337 48.6286 107.537 49.0312 106.676 49.2325C104.819 49.6711 102.682 49.1964 101.105 50.2569C100.226 50.8577 99.6993 51.813 99.2057 52.7443C98.8044 53.5113 98.3971 54.2774 97.9837 55.0424C97.3186 56.3012 96.6413 57.5809 96.3614 58.9749C96.3026 59.2782 96.2664 59.5854 96.2531 59.8941V59.9091C96.2531 60.0203 96.2531 60.1314 96.2531 60.2426V60.3838C96.2531 60.4889 96.2531 60.5911 96.2711 60.6842C96.2892 60.7773 96.2862 60.8074 96.2952 60.8705C96.3043 60.9335 96.3193 61.0747 96.3374 61.1709C96.3554 61.267 96.3915 61.4352 96.4277 61.5674C96.4427 61.6245 96.4638 61.6786 96.4818 61.7326C96.5119 61.8348 96.548 61.9339 96.5872 62.0331C96.6082 62.0841 96.6293 62.1382 96.6534 62.1893C96.6985 62.2944 96.7527 62.3966 96.8069 62.4897C96.831 62.5317 96.849 62.5708 96.8731 62.6099C96.9571 62.7496 97.0495 62.884 97.15 63.0124C97.7941 63.8145 98.7422 64.3252 99.4435 65.0762C99.4435 65.1063 99.4435 65.1363 99.4435 65.1634C99.4435 65.2475 99.4435 65.3286 99.4435 65.4127C99.4807 67.0877 99.9273 68.7282 100.745 70.1916C101.562 71.6549 102.725 72.8969 104.133 73.8093C104.133 73.9234 104.148 74.0406 104.154 74.1547C104.212 75.0465 104.201 75.9414 104.121 76.8314C103.998 76.6873 103.845 76.5726 103.672 76.4956C103.499 76.4187 103.311 76.3815 103.121 76.3868C102.992 76.3805 102.863 76.3916 102.736 76.4199L102.709 76.3988V76.4259C102.047 76.5881 101.231 77.276 100.452 79.2317C100.452 79.2317 98.08 81.8994 96.2742 81.7882C94.4683 81.6771 89.8964 84.5641 89.8964 84.5641C89.8964 84.5641 85.4359 87.454 84.4788 90.3981C83.9438 92.0675 83.3024 93.7011 82.5586 95.2888L77.0447 106.629L76.0273 115.627C76.0273 115.627 76.5902 119.628 76.4788 120.238C76.3674 120.848 78.7933 126.349 78.7933 126.349C78.7933 126.349 86.8084 140.405 90.083 141.126L90.3178 140.961C90.4579 141.034 90.6065 141.089 90.7602 141.126L91.4344 140.651C91.4749 141.18 91.4578 141.712 91.3833 142.237C90.9318 143.625 91.5518 152.683 92.3404 154.458C93.1289 156.234 92.849 179.513 92.849 179.513L92.7377 181.567C92.7377 181.567 92.7377 181.634 92.7648 181.748L92.7377 182.234L92.8189 182.276C92.9033 182.928 92.8758 183.59 92.7377 184.232C92.4547 185.133 92.3404 187.681 92.3404 187.681C92.3404 187.681 90.086 202.065 91.1545 204.955C92.223 207.845 93.1319 211.011 93.1319 211.011C93.1319 211.011 94.2606 214.616 93.1861 215.232C92.1116 215.848 89.0567 216.881 89.6857 218.383C90.2576 219.771 92.4277 223.49 92.7497 224.034L92.7226 224.319L92.2802 229.105C92.3518 229.737 92.5235 230.353 92.7888 230.931C93.2734 231.974 94.2155 233.055 96.0063 232.938C96.3073 232.917 96.6564 232.881 96.9935 232.836C100.271 232.397 104.307 230.937 104.307 230.937C104.098 230.805 103.906 230.646 103.735 230.466C103.574 230.31 103.447 230.123 103.36 229.917C103.274 229.71 103.23 229.488 103.233 229.264C103.281 228.393 101.647 224.241 101.24 223.22C101.177 223.073 101.144 222.988 101.144 222.988C101.144 222.988 104.87 219.101 104.25 215.655C104.25 215.655 100.127 213.252 101.484 211.933C102.842 210.614 105.267 206.826 105.267 206.826C105.267 206.826 105.379 192.662 105.267 190.547C105.151 189.079 105.221 187.602 105.475 186.152C105.52 185.932 105.574 185.719 105.632 185.509C107.509 185.789 109.404 185.932 111.302 185.939C111.994 185.939 112.699 185.938 113.409 185.896C113.409 186.097 113.418 186.313 113.436 186.545C113.592 190.054 113.884 196.207 114.122 198.493C114.459 201.77 116.322 210.602 116.322 210.602C116.322 210.602 112.768 212.88 116.942 218.491C116.942 218.491 116.942 220.525 116.665 220.819C116.37 221.782 116.132 222.761 115.952 223.752C115.778 224.809 115.705 225.878 115.988 226.434C116.665 227.762 120.729 227.654 120.729 227.654L120.828 227.636C121.595 227.557 122.37 227.63 123.109 227.853C123.847 228.075 124.534 228.441 125.129 228.931C126.673 230.168 132.533 229.625 135.705 229.231C136.948 229.075 137.779 228.931 137.779 228.931C137.819 228.79 137.834 228.644 137.821 228.498C137.788 227.72 137.177 226.014 133.036 224.491C133.036 224.491 129.141 221.877 129.195 219.6H129.114H128.662C128.991 219.582 129.201 219.6 129.201 219.6C129.201 219.6 127.675 214.042 128.298 213.592C128.921 213.141 127.055 206.982 127.055 206.982C127.055 206.982 125.987 196.648 125.93 195.924C125.932 195.303 126.026 194.685 126.209 194.092L125.93 188.426C125.93 188.426 125.875 186.542 125.93 185.929C125.92 185.398 125.877 184.867 125.8 184.34C125.773 184.13 125.746 183.911 125.716 183.694C127.176 183.325 128.124 182.982 128.124 182.982L127.955 163.26C129.195 160.857 129.424 155.585 129.418 151.845C129.418 149.441 129.31 147.663 129.31 147.663L131.004 144.902C131.004 144.902 131.395 141.598 130.775 140.874C130.501 140.546 130.625 140.207 130.851 139.927C130.968 139.834 131.091 139.75 131.221 139.675C131.221 139.675 131.203 139.648 131.182 139.609C131.3 139.51 131.426 139.421 131.558 139.341C131.558 139.341 130.956 138.41 131.495 138.017C132 138.359 132.452 138.617 132.795 138.828C132.771 139.047 132.747 139.173 132.747 139.173L132.891 138.873C133.222 139.059 133.424 139.173 133.424 139.173C133.424 139.173 136.079 133.895 136.021 133.117C135.964 132.339 137.827 129.061 137.827 129.061C137.827 129.061 138.053 127.34 139.07 126.619C140.088 125.898 139.859 120.674 139.859 120.674C139.859 120.674 140.142 117.952 140.819 116.84C141.496 115.729 140.202 114.23 140.202 114.23ZM89.4088 111.914L89.46 113.172C89.159 112.689 88.9423 112.34 88.9423 112.34L89.4088 111.914Z" fill="url(#paint0_linear_6_207)"/>
<path d="M133.568 136.893L132.918 139.657C132.918 139.657 127.711 137.004 126.772 133.634C125.833 130.263 128.343 128.983 128.343 128.983L133.195 131.035L133.568 136.893Z" fill="white"/>
<path opacity="0.1" d="M133.568 136.893L132.918 139.657C132.918 139.657 127.711 137.004 126.772 133.634C125.833 130.263 128.343 128.983 128.343 128.983L133.195 131.035L133.568 136.893Z" fill="black"/>
<path d="M104.346 230.956C104.346 230.956 99.5308 232.722 96.22 232.944C94.4623 233.061 93.5383 231.986 93.0628 230.95C92.803 230.373 92.6354 229.76 92.5662 229.132L92.9966 224.37L93.2253 221.835L100.259 220.011L101.255 223.052L101.349 223.283C101.749 224.298 103.353 228.429 103.305 229.291C103.303 229.512 103.346 229.731 103.431 229.935C103.515 230.139 103.641 230.323 103.799 230.478C103.96 230.66 104.144 230.82 104.346 230.956Z" fill="white"/>
<path d="M137.24 228.534C137.252 228.679 137.238 228.824 137.198 228.964C137.198 228.964 126.899 230.679 124.792 228.964C124.198 228.463 123.506 228.091 122.759 227.873C122.013 227.655 121.229 227.594 120.458 227.696C120.458 227.696 116.473 227.804 115.808 226.495C115.531 225.945 115.603 224.878 115.775 223.827C115.95 222.842 116.183 221.868 116.473 220.91L116.632 220.784L117.58 220.024L128.681 219.696H128.765C128.711 221.961 132.533 224.56 132.533 224.56C136.593 226.062 137.192 227.759 137.24 228.534Z" fill="white"/>
<path opacity="0.1" d="M137.24 228.534C137.251 228.679 137.236 228.824 137.195 228.964C137.195 228.964 126.899 230.679 124.792 228.964C124.198 228.463 123.506 228.092 122.761 227.873C122.015 227.655 121.231 227.595 120.461 227.696C120.461 227.696 116.473 227.804 115.811 226.494C115.534 225.942 115.603 224.878 115.775 223.827C117.31 223.98 119.732 224.362 120.684 225.272C122.122 226.657 124.56 228.039 126.056 228.147C127.227 228.222 134.231 228.444 137.24 228.534Z" fill="black"/>
<path opacity="0.1" d="M104.346 230.956C104.346 230.956 99.5308 232.722 96.22 232.944C94.4623 233.061 93.5383 231.986 93.0658 230.947C94.2908 231.358 95.9913 231.791 96.8852 231.394C97.9447 230.926 101.701 230.622 103.808 230.493C103.968 230.668 104.149 230.823 104.346 230.956Z" fill="black"/>
<path d="M111.492 88.6047C107.519 87.0636 102.408 81.9716 103.684 79.5924C103.968 78.9919 104.136 78.3439 104.181 77.6817C104.263 76.7828 104.275 75.8788 104.217 74.978C104.127 73.5027 103.95 72.034 103.684 70.58C103.684 70.58 116.088 70.8593 115.365 72.6828C115.155 73.2176 115.121 74.1459 115.179 75.1853C115.236 76.2247 115.386 77.3993 115.543 78.3937C115.759 79.7576 115.976 80.797 115.976 80.797C115.976 80.797 115.218 81.8575 114.772 81.9145C114.327 81.9716 117.192 90.8008 111.492 88.6047Z" fill="#CF6F80"/>
<path opacity="0.1" d="M101.34 223.283L101.246 223.385C97.5383 218.909 93.0538 224.488 93.0538 224.488L92.9875 224.37L93.2163 221.835L100.25 220.011L101.246 223.052L101.34 223.283Z" fill="black"/>
<path opacity="0.1" d="M128.768 220.012C128.768 220.012 126.059 219.954 124.614 221.228C123.17 222.502 116.187 221.505 116.488 221.228C116.577 221.091 116.631 220.934 116.644 220.772L117.592 220.012L128.693 219.684C128.735 219.885 128.768 220.012 128.768 220.012Z" fill="black"/>
<path d="M105.954 184.86C105.752 185.358 105.599 185.874 105.496 186.401C105.245 187.845 105.175 189.314 105.289 190.775C105.4 192.878 105.289 206.971 105.289 206.971C105.289 206.971 102.908 210.729 101.581 212.054C100.253 213.378 104.289 215.758 104.289 215.758C104.891 219.182 101.243 223.052 101.243 223.052C97.5354 218.576 93.0508 224.157 93.0508 224.157C93.0508 224.157 90.6128 219.951 90.0049 218.449C89.3969 216.947 92.3856 215.908 93.436 215.298C94.4864 214.688 93.3849 211.092 93.3849 211.092C93.3849 211.092 92.497 207.941 91.4435 205.066C90.3901 202.191 92.6053 187.879 92.6053 187.879C92.6053 187.879 92.7197 185.338 92.9936 184.452C93.1318 183.812 93.1593 183.154 93.0749 182.505C93.0568 182.286 93.0357 182.102 93.0207 181.979C93.0056 181.856 92.9936 181.799 92.9936 181.799L93.0357 181.727L94.5406 178.927C94.5406 178.927 106.676 183.097 105.954 184.86Z" fill="#587EEC"/>
<path d="M128.768 219.681C128.768 219.681 126.059 219.624 124.614 220.883C123.17 222.142 116.187 221.159 116.488 220.883C116.789 220.607 116.765 218.561 116.765 218.561C112.669 212.979 116.163 210.714 116.163 210.714C116.163 210.714 114.333 201.927 114.002 198.667C113.77 196.39 113.484 190.271 113.331 186.777C113.264 185.275 113.225 184.241 113.225 184.241L116.572 183.569L117.003 183.481L125.075 181.865C125.075 181.865 125.298 183.367 125.448 184.596C125.523 185.121 125.565 185.649 125.574 186.179C125.52 186.78 125.574 188.661 125.574 188.661L125.848 194.299C125.669 194.891 125.577 195.505 125.574 196.123C125.629 196.841 126.679 207.121 126.679 207.121C126.679 207.121 128.506 213.255 127.883 213.697C127.26 214.139 128.768 219.681 128.768 219.681Z" fill="#587EEC"/>
<path opacity="0.1" d="M115.365 72.6828C115.155 73.2176 115.122 74.1459 115.179 75.1853C113.517 76.1839 111.607 76.6944 109.668 76.6583C107.729 76.6221 105.84 76.0408 104.217 74.981C104.128 73.5047 103.95 72.035 103.684 70.58C103.684 70.58 116.088 70.8533 115.365 72.6828Z" fill="black"/>
<path d="M120.16 66.0438C120.162 67.1263 119.992 68.2023 119.654 69.2311C118.9 71.5364 117.354 73.5014 115.289 74.7788C113.224 76.0562 110.772 76.5638 108.369 76.2118C105.965 75.8598 103.763 74.671 102.152 72.8554C100.542 71.0398 99.6259 68.7144 99.5669 66.2901C99.5669 66.206 99.5669 66.1279 99.5669 66.0438C99.5436 64.6792 99.7927 63.3236 100.3 62.0561C100.807 60.7886 101.562 59.6345 102.52 58.6613C103.479 57.688 104.622 56.915 105.883 56.3873C107.144 55.8596 108.498 55.5879 109.865 55.5879C111.232 55.5879 112.586 55.8596 113.847 56.3873C115.108 56.915 116.251 57.688 117.21 58.6613C118.168 59.6345 118.923 60.7886 119.43 62.0561C119.937 63.3236 120.186 64.6792 120.163 66.0438H120.16Z" fill="#CF6F80"/>
<path opacity="0.1" d="M111.492 88.6048C107.519 87.0637 102.408 81.9717 103.684 79.5924C103.968 78.992 104.136 78.344 104.181 77.6818L109.62 82.1429L112.984 84.8977L115.543 78.3967C115.759 79.7606 115.976 80.8 115.976 80.8C115.976 80.8 115.218 81.8605 114.772 81.9176C114.327 81.9747 117.192 90.8008 111.492 88.6048Z" fill="black"/>
<path d="M125.556 108.321L121.015 184.476L115.091 184.863L99.7535 140.705L102.27 88.2803L102.799 77.2041L109.62 82.7948L112.988 85.5496L115.621 78.8594L120.518 83.1192L125.556 108.321Z" fill="#587EEC"/>
<path opacity="0.1" d="M105.954 184.86C105.752 185.358 105.599 185.874 105.496 186.401C101.186 185.737 97.0002 184.432 93.0778 182.529L92.9966 182.487L93.0237 182.003L93.0387 181.751L94.5436 178.951C94.5436 178.951 106.676 183.097 105.954 184.86Z" fill="black"/>
<path opacity="0.1" d="M116.641 186.413C115.54 186.6 114.428 186.727 113.313 186.792C113.246 185.29 113.207 184.256 113.207 184.256L116.554 183.583L116.641 186.413Z" fill="black"/>
<path opacity="0.1" d="M125.43 184.611C123.29 185.167 119.985 185.792 117.027 185.401L116.984 183.496L125.057 181.88C125.057 181.88 125.279 183.367 125.43 184.611Z" fill="black"/>
<path opacity="0.1" d="M116.973 185.749C104.632 187.852 93.3306 181.823 93.3306 181.823L93.439 179.78C93.439 179.78 93.7189 156.621 92.9424 154.846C92.1659 153.07 91.5609 144.067 92.0003 142.685C92.4397 141.303 90.3961 120.581 90.3961 120.581L90.065 112.169L77.9476 107.269L83.3652 95.9979C84.097 94.4176 84.7263 92.792 85.2494 91.1312C86.1914 88.2052 90.5647 85.3303 90.5647 85.3303C90.5647 85.3303 95.0492 82.4583 96.822 82.5665C98.5948 82.6746 100.918 80.025 100.918 80.025C102.634 75.66 104.187 77.6367 104.187 77.6367C104.187 77.844 104.187 77.6367 104.103 78.2826C103.501 83.0742 113.836 98.215 113.984 98.4824L114.968 122.413L115.964 152.698L116.973 185.749Z" fill="black"/>
<path d="M116.641 185.749C104.301 187.852 92.9965 181.823 92.9965 181.823L93.1079 179.78C93.1079 179.78 93.3878 156.621 92.6082 154.846C91.8287 153.07 91.2267 144.067 91.6692 142.685C92.1116 141.303 90.065 120.581 90.065 120.581L89.7309 112.169L77.6075 107.251L83.0251 95.98C83.7552 94.399 84.3845 92.7735 84.9092 91.1133C85.8483 88.1873 90.2245 85.3123 90.2245 85.3123C90.2245 85.3123 94.7091 82.4404 96.4788 82.5485C98.2486 82.6567 100.575 80.007 100.575 80.007C102.294 75.642 104.187 77.6187 104.187 77.6187C104.187 77.826 104.006 77.9191 104.103 78.2646C105.427 82.912 113.505 98.197 113.653 98.4644L114.649 122.395L115.645 152.68L116.641 185.749Z" fill="white"/>
<path opacity="0.1" d="M113.316 99.1463C111.988 98.5936 104.957 90.5815 104.957 90.5815V88.758C104.702 88.1572 103.182 88.5237 101.948 88.9443L102.477 77.868L103.079 78.3667C104.398 83.0111 113.162 98.8789 113.316 99.1463Z" fill="black"/>
<path d="M113.65 98.4824C112.319 97.9296 105.289 89.9176 105.289 89.9176V88.0941C105.033 87.4933 103.513 87.8598 102.279 88.2803L102.811 77.2041L103.413 77.7028C104.735 82.3472 113.502 98.218 113.65 98.4824Z" fill="white"/>
<path opacity="0.1" d="M93.3306 138.44C93.4961 138.44 101.911 137.557 101.911 137.557C101.911 137.557 107.007 147.558 106.673 149.991C106.339 152.424 105.734 154.578 103.684 154.197C101.635 153.815 92.6534 154.497 92.6534 154.497L93.3306 138.44Z" fill="black"/>
<path d="M92.9965 137.777C93.1621 137.777 101.577 136.893 101.577 136.893C101.577 136.893 106.67 146.897 106.339 149.327C106.008 151.758 105.397 153.915 103.35 153.533C101.304 153.152 92.3193 153.834 92.3193 153.834L92.9965 137.777Z" fill="white"/>
<path d="M99.3382 133.081C99.3382 133.081 107.061 137.224 107.227 138.488C107.392 139.753 103.296 137.936 102.411 137.716C101.829 137.576 101.236 137.484 100.638 137.44L94.7363 137.599L99.3382 133.081Z" fill="#CF6F80"/>
<path opacity="0.1" d="M111.161 99.6629C111.609 99.6629 111.973 99.2997 111.973 98.8518C111.973 98.4038 111.609 98.0406 111.161 98.0406C110.712 98.0406 110.348 98.4038 110.348 98.8518C110.348 99.2997 110.712 99.6629 111.161 99.6629Z" fill="black"/>
<path d="M111.161 99.3327C111.609 99.3327 111.973 98.9695 111.973 98.5216C111.973 98.0736 111.609 97.7104 111.161 97.7104C110.712 97.7104 110.348 98.0736 110.348 98.5216C110.348 98.9695 110.712 99.3327 111.161 99.3327Z" fill="#3F3D56"/>
<path opacity="0.1" d="M112.656 134.775C113.105 134.775 113.469 134.412 113.469 133.964C113.469 133.516 113.105 133.153 112.656 133.153C112.208 133.153 111.844 133.516 111.844 133.964C111.844 134.412 112.208 134.775 112.656 134.775Z" fill="black"/>
<path d="M112.656 134.442C113.105 134.442 113.469 134.079 113.469 133.631C113.469 133.183 113.105 132.82 112.656 132.82C112.208 132.82 111.844 133.183 111.844 133.631C111.844 134.079 112.208 134.442 112.656 134.442Z" fill="#3F3D56"/>
<path opacity="0.1" d="M111.97 117.219C112.419 117.219 112.783 116.856 112.783 116.408C112.783 115.96 112.419 115.597 111.97 115.597C111.521 115.597 111.158 115.96 111.158 116.408C111.158 116.856 111.521 117.219 111.97 117.219Z" fill="black"/>
<path d="M111.97 116.889C112.419 116.889 112.783 116.526 112.783 116.078C112.783 115.63 112.419 115.267 111.97 115.267C111.521 115.267 111.158 115.63 111.158 116.078C111.158 116.526 111.521 116.889 111.97 116.889Z" fill="#3F3D56"/>
<path d="M130.703 137.272C130.703 137.272 131.257 138.101 130.703 138.488C130.149 138.876 130.757 139.813 130.757 139.813C130.757 139.813 129.376 140.621 129.984 141.348C130.592 142.075 130.207 145.359 130.207 145.359L128.545 148.105C128.545 148.105 128.644 149.874 128.65 152.265C128.65 155.996 128.431 161.242 127.215 163.633L127.383 183.253C127.383 183.253 121.565 185.374 116.696 184.728L115.973 153.245C115.973 153.245 117.027 135.391 117.415 131.966C117.642 130.188 117.735 128.396 117.692 126.604C117.692 126.604 117.526 121.245 116.97 118.757C116.97 118.757 116.368 107.981 116.307 104.998C116.28 103.571 116.356 99.4076 116.44 95.4481C116.533 91.1192 116.638 87.0365 116.638 87.0365L115.54 78.3606C115.54 78.3606 116.638 78.2495 116.97 78.6911C117.118 78.8293 117.279 78.9531 117.451 79.0606C119.347 80.3403 126.047 84.2757 126.047 84.2757C126.047 84.2757 129.755 85.7478 130.643 87.8567C131.531 89.9656 132.148 91.4616 132.578 92.0625C133.009 92.6633 133.243 95.4872 133.243 95.4872C133.243 95.4872 134.52 100.684 135.516 101.565C136.512 102.445 137.24 108.044 137.24 108.044L128.437 114.954C128.437 114.954 127.663 126.448 127.498 126.892C127.332 127.337 130.703 137.272 130.703 137.272Z" fill="white"/>
<path d="M131.037 137.272C131.037 137.272 131.588 138.101 131.037 138.489C130.486 138.876 131.088 139.813 131.088 139.813C131.088 139.813 129.716 140.63 130.318 141.357C130.92 142.084 130.541 145.368 130.541 145.368L128.879 148.114C128.879 148.114 128.978 149.883 128.988 152.275C128.988 156.006 128.768 161.251 127.552 163.642L127.717 183.262C127.717 183.262 121.89 185.383 117.027 184.737L116.307 153.254C116.307 153.254 117.361 135.4 117.749 131.976C117.976 130.198 118.068 128.405 118.023 126.613C118.023 126.613 117.857 121.254 117.304 118.766C117.304 118.766 116.702 107.991 116.638 105.007C116.611 103.581 116.69 99.4168 116.771 95.4574C116.864 91.1284 116.969 87.0458 116.969 87.0458L115.519 78.2527C115.519 78.2527 116.969 78.2527 117.304 78.7003C117.45 78.8402 117.612 78.9641 117.785 79.0698C119.681 80.3496 126.384 84.285 126.384 84.285C126.384 84.285 130.089 85.757 130.977 87.8659C131.865 89.9748 132.482 91.4709 132.915 92.0717C133.349 92.6725 133.577 95.4964 133.577 95.4964C133.577 95.4964 134.854 100.694 135.85 101.574C136.846 102.454 137.565 108.042 137.565 108.042L128.762 114.951C128.762 114.951 127.988 126.445 127.82 126.89C127.651 127.334 131.037 137.272 131.037 137.272Z" fill="white"/>
<path opacity="0.1" d="M120.494 89.5961L121.289 91.9093L117.105 96.1151C117.198 91.7891 117.304 87.7035 117.304 87.7035L115.853 78.9104C115.853 78.9104 117.304 78.9104 117.638 79.358C117.784 79.4975 117.946 79.6205 118.119 79.7245L121.677 89.9686L120.494 89.5961Z" fill="black"/>
<path d="M120.16 88.9323L120.957 91.2455L116.774 95.4513C116.867 91.1223 116.972 87.0397 116.972 87.0397L115.519 78.2466C115.519 78.2466 116.972 78.2466 117.304 78.6942C117.451 78.8333 117.613 78.9571 117.785 79.0637L121.346 89.3048L120.16 88.9323Z" fill="white"/>
<path opacity="0.1" d="M120.16 66.0438C120.162 67.1263 119.992 68.2023 119.654 69.2311C119.597 69.24 119.539 69.2374 119.483 69.2235C119.428 69.2095 119.375 69.1846 119.329 69.15C119.251 66.4463 117.918 63.9078 116.277 61.7479C115.817 61.0957 115.258 60.5182 114.622 60.0355C113.978 59.5531 113.178 59.3271 112.377 59.4016C111.474 59.5248 110.676 60.1376 109.764 60.2157C108.56 60.3149 107.483 59.4827 106.288 59.4407C105.802 59.4453 105.323 59.5532 104.882 59.7573C104.442 59.9615 104.05 60.257 103.732 60.6243C103.105 61.3655 102.638 62.229 102.363 63.1598C101.89 64.5713 101.632 66.0458 101.599 67.5338C101.583 68.375 101.502 69.4294 100.72 69.7358C100.779 69.1172 100.708 68.4931 100.513 67.9031C100.318 67.3131 100.002 66.7699 99.585 66.3081L99.5669 66.2901C99.5669 66.206 99.5669 66.1279 99.5669 66.0438C99.5436 64.6792 99.7927 63.3236 100.3 62.0561C100.807 60.7886 101.562 59.6345 102.52 58.6613C103.479 57.688 104.622 56.915 105.883 56.3873C107.144 55.8596 108.498 55.5879 109.865 55.5879C111.232 55.5879 112.586 55.8596 113.847 56.3873C115.108 56.915 116.251 57.688 117.21 58.6613C118.168 59.6345 118.923 60.7886 119.43 62.0561C119.937 63.3236 120.186 64.6792 120.163 66.0438H120.16Z" fill="black"/>
<path d="M114.128 49.7224C112.564 48.9881 110.785 48.8492 109.126 49.3319C108.292 49.5782 107.507 49.9777 106.661 50.179C104.855 50.6146 102.748 50.143 101.198 51.1974C100.337 51.7982 99.8197 52.7476 99.3381 53.6698L98.1342 55.959C97.4781 57.2117 96.8159 58.4854 96.542 59.8643C96.2681 61.2432 96.4337 62.7874 97.3095 63.8959C97.9476 64.704 98.8897 65.2117 99.5819 65.9717C99.9966 66.434 100.311 66.9769 100.506 67.5662C100.701 68.1555 100.771 68.7786 100.714 69.3965C101.499 69.096 101.574 68.0386 101.592 67.1974C101.626 65.7094 101.884 64.2349 102.357 62.8234C102.632 61.8923 103.098 61.0287 103.726 60.2879C104.044 59.9209 104.436 59.6256 104.876 59.4215C105.317 59.2174 105.796 59.1093 106.282 59.1043C107.486 59.1464 108.566 59.9755 109.758 59.8764C110.661 59.8013 111.462 59.1854 112.37 59.0652C113.172 58.9895 113.973 59.2156 114.616 59.6991C115.252 60.181 115.81 60.7587 116.268 61.4115C117.912 63.5714 119.245 66.1039 119.323 68.8137C119.663 69.063 120.154 68.7385 120.322 68.354C120.491 67.9695 120.497 67.5189 120.711 67.1524C120.957 66.7288 121.43 66.5035 121.8 66.185C122.739 65.3769 122.974 64.0161 122.938 62.7814C122.902 61.5467 122.661 60.2939 122.896 59.0803C123.037 58.3352 123.356 57.6383 123.531 56.9023C123.705 56.1663 123.726 55.3401 123.314 54.7062C122.712 53.775 121.445 53.5917 120.34 53.5046C119.085 53.3964 117.963 53.5346 117.162 52.4802C116.786 51.9299 116.363 51.4133 115.898 50.9361C115.738 50.7798 114.128 49.7885 114.128 49.7224Z" fill="#512E4E"/>
<path opacity="0.1" d="M81.4149 113.073L78.2697 107.269L77.2734 116.225C77.2734 116.225 77.8272 120.202 77.7159 120.812C77.6045 121.422 79.9852 126.889 79.9852 126.889C79.9852 126.889 87.8498 140.871 91.0613 141.592L101.912 133.853L99.0342 130.206C99.0342 130.206 98.038 129.818 97.7881 130.206C97.7881 130.206 92.4458 121.031 91.892 120.367C91.3382 119.703 91.4465 118.379 91.4465 118.379C91.4465 118.379 90.6158 117.495 90.8927 116.666C91.1696 115.837 89.2885 112.962 89.2885 112.962L91.0041 111.361L81.4149 113.073Z" fill="black"/>
<path d="M78.4352 106.609L77.6045 107.27L76.6082 116.225C76.6082 116.225 77.162 120.202 77.0507 120.812C76.9393 121.422 79.323 126.89 79.323 126.89C79.323 126.89 87.1846 140.871 90.396 141.592L101.249 133.853L98.369 130.206C98.369 130.206 97.3727 129.819 97.1229 130.206C97.1229 130.206 91.7805 121.031 91.2267 120.368C90.6729 119.704 90.7843 118.379 90.7843 118.379C90.7843 118.379 89.9536 117.496 90.2305 116.666C90.5074 115.837 88.6233 112.962 88.6233 112.962L90.3389 111.361L78.4352 106.609Z" fill="white"/>
<path opacity="0.1" d="M129.984 141.691C130.586 142.421 130.206 145.698 130.206 145.698L128.545 148.444C128.545 148.444 128.644 150.217 128.65 152.605L125.857 153.476C125.605 153.555 125.337 153.572 125.077 153.526C124.816 153.481 124.571 153.374 124.36 153.214C124.149 153.055 123.98 152.847 123.866 152.609C123.752 152.371 123.697 152.109 123.705 151.845L124.187 136.34L130.703 138.828C130.149 139.212 130.757 140.156 130.757 140.156C130.757 140.156 129.376 140.961 129.984 141.691Z" fill="black"/>
<path d="M130.318 141.357C130.92 142.087 130.541 145.368 130.541 145.368L128.879 148.114C128.879 148.114 128.979 149.883 128.988 152.274L126.143 153.161C125.896 153.237 125.634 153.254 125.379 153.209C125.124 153.164 124.884 153.059 124.678 152.903C124.471 152.747 124.306 152.543 124.194 152.31C124.083 152.077 124.029 151.821 124.036 151.562L124.521 136.01L131.04 138.497C130.483 138.882 131.091 139.822 131.091 139.822C131.091 139.822 129.716 140.63 130.318 141.357Z" fill="white"/>
<path d="M132.476 133.967C132.476 133.967 132.033 136.788 130.926 136.953C129.818 137.119 129.322 141.517 128.217 141.36C127.112 141.204 127.844 137.272 127.883 136.509C127.922 135.746 126.679 132.585 127.609 131.867C128.539 131.149 131.483 131.867 131.483 131.867L132.476 133.967Z" fill="#CF6F80"/>
<path opacity="0.1" d="M134.833 112.244L136.921 108.038C136.921 108.038 137.752 111.244 137.752 112.956C137.752 114.669 138.914 114.837 138.914 114.837C138.914 114.837 140.187 116.339 139.516 117.432C138.845 118.526 138.574 121.248 138.574 121.248C138.574 121.248 138.793 126.442 137.797 127.16C136.801 127.878 136.593 129.593 136.593 129.593C136.593 129.593 134.763 132.853 134.821 133.628C134.878 134.403 132.274 139.651 132.274 139.651C132.274 139.651 133.547 133.129 126.128 130.311C126.128 130.311 126.071 128.097 126.625 127.49C127.179 126.883 128.042 126.607 127.501 123.54C126.959 120.473 127.344 116.808 127.344 116.072C127.344 115.335 129.006 110.745 129.006 110.745L134.833 112.244Z" fill="black"/>
<path d="M135.736 107.438L137.559 108.038C137.559 108.038 138.393 111.244 138.393 112.956C138.393 114.669 139.555 114.837 139.555 114.837C139.555 114.837 140.828 116.339 140.157 117.432C139.486 118.526 139.218 121.248 139.218 121.248C139.218 121.248 139.438 126.442 138.441 127.16C137.445 127.878 137.222 129.593 137.222 129.593C137.222 129.593 135.395 132.853 135.453 133.628C135.51 134.403 132.903 139.651 132.903 139.651C132.903 139.651 134.179 133.129 126.757 130.311C126.757 130.311 126.703 128.097 127.257 127.49C127.811 126.883 128.675 126.607 128.133 123.54C127.591 120.473 127.976 116.808 127.976 116.071C127.976 115.335 129.638 110.745 129.638 110.745L135.736 107.438Z" fill="white"/>
<path opacity="0.1" d="M95.4495 216.449C95.4495 216.449 98.357 214.625 100.265 215.95C102.173 217.275 95.4495 216.449 95.4495 216.449Z" fill="black"/>
<path opacity="0.1" d="M118.041 210.81C118.041 210.81 120.614 210.479 122.775 212.802C124.936 215.124 118.041 210.81 118.041 210.81Z" fill="black"/>
<g opacity="0.1">
<path opacity="0.1" d="M121.806 65.5271C121.436 65.8455 120.96 66.0738 120.714 66.4974C120.503 66.8609 120.497 67.3085 120.328 67.6991C120.16 68.0896 119.669 68.408 119.329 68.1617C119.251 65.458 117.915 62.9195 116.274 60.7565C115.816 60.1037 115.258 59.5261 114.622 59.0442C113.978 58.5608 113.176 58.3347 112.374 58.4103C111.471 58.5335 110.676 59.1463 109.764 59.2214C108.56 59.3235 107.48 58.4914 106.285 58.4493C105.799 58.4542 105.32 58.5625 104.88 58.7672C104.44 58.9718 104.049 59.2681 103.732 59.636C103.104 60.3757 102.638 61.2383 102.363 62.1685C101.89 63.58 101.632 65.0545 101.598 66.5425C101.58 67.3806 101.502 68.4261 100.726 68.7385C100.744 68.9604 100.744 69.1835 100.726 69.4054C101.508 69.105 101.586 68.0475 101.605 67.2064C101.638 65.7184 101.896 64.2438 102.369 62.8324C102.644 61.9013 103.11 61.0377 103.738 60.2969C104.055 59.93 104.447 59.6346 104.887 59.4305C105.327 59.2264 105.805 59.1183 106.291 59.1133C107.495 59.1553 108.578 59.9844 109.77 59.8853C110.673 59.8102 111.474 59.1944 112.38 59.0742C113.182 58.9986 113.984 59.2247 114.628 59.7081C115.264 60.19 115.822 60.7677 116.28 61.4204C117.921 63.5804 119.257 66.1129 119.335 68.8226C119.675 69.0719 120.166 68.7475 120.334 68.363C120.503 67.9784 120.509 67.5278 120.72 67.1613C120.966 66.7377 121.442 66.5124 121.812 66.194C122.751 65.3859 122.986 64.025 122.95 62.7903C122.95 62.7513 122.95 62.7122 122.95 62.6762C122.893 63.7456 122.607 64.8361 121.806 65.5271Z" fill="black"/>
<path opacity="0.1" d="M99.5879 65.3137C98.8957 64.5537 97.9506 64.046 97.3156 63.2409C96.7808 62.5282 96.4754 61.6702 96.4397 60.7805C96.345 61.8923 96.656 63.0008 97.3156 63.9018C97.9506 64.7099 98.8957 65.2176 99.5879 65.9777C100.253 66.7211 100.652 67.6635 100.723 68.6573C100.769 68.0525 100.692 67.4446 100.497 66.87C100.302 66.2955 99.9928 65.7661 99.5879 65.3137Z" fill="black"/>
<path opacity="0.1" d="M123.537 56.2442C123.359 56.9802 123.043 57.6802 122.899 58.4222C122.813 58.9181 122.782 59.4217 122.805 59.9243C122.815 59.638 122.847 59.3528 122.899 59.0711C123.043 58.3261 123.359 57.6291 123.537 56.8931C123.64 56.4872 123.674 56.0666 123.636 55.6494C123.617 55.8498 123.584 56.0486 123.537 56.2442Z" fill="black"/>
</g>
<path opacity="0.1" d="M41.2192 228.663C57.4163 228.663 70.5466 226.559 70.5466 223.962C70.5466 221.365 57.4163 219.26 41.2192 219.26C25.0222 219.26 11.8919 221.365 11.8919 223.962C11.8919 226.559 25.0222 228.663 41.2192 228.663Z" fill="#587EEC"/>
<path d="M42.1644 133.898H40.2772V176.308H42.1644V133.898Z" fill="#535461"/>
<path d="M54.0228 176.178L53.9055 178.089L53.7369 180.793L53.6677 181.916L53.5022 184.62L53.4299 185.744L53.2614 188.447L51.3592 219.11C51.2765 220.43 50.6933 221.668 49.7282 222.573C48.7631 223.479 47.4887 223.983 46.1643 223.983H36.2742C34.9501 223.983 33.676 223.478 32.7114 222.573C31.7468 221.668 31.1642 220.429 31.0823 219.11L29.1891 188.426L29.0206 185.723L28.9514 184.599L28.7828 181.895L28.7136 180.772L28.545 178.068L28.4246 176.157C28.4037 175.79 28.4583 175.422 28.5851 175.076C28.7118 174.73 28.908 174.413 29.1616 174.146C29.4153 173.878 29.721 173.665 30.0601 173.52C30.3992 173.375 30.7644 173.3 31.1334 173.3H51.3622C51.7298 173.304 52.0929 173.382 52.429 173.531C52.7651 173.679 53.0672 173.895 53.3165 174.165C53.5658 174.434 53.7571 174.752 53.8786 175.099C54.0001 175.445 54.0492 175.812 54.0228 176.178Z" fill="#3F3D56"/>
<path d="M53.9055 178.089L53.7369 180.784H28.7016L28.533 178.089H53.9055Z" fill="#9D9CB5"/>
<path d="M53.6677 181.907L53.5022 184.605H28.9394L28.7708 181.907H53.6677Z" fill="#9D9CB5"/>
<path d="M53.4299 185.731L53.2644 188.426H29.1771L29.0085 185.731H53.4299Z" fill="#9D9CB5"/>
<path d="M25.6526 149.793C36.6413 157.73 41.2282 170.143 41.2282 170.143C41.2282 170.143 27.9852 169.689 16.9934 161.752C6.00171 153.815 1.42383 141.405 1.42383 141.405C1.42383 141.405 14.6609 141.856 25.6526 149.793Z" fill="#587EEC"/>
<path d="M1.41486 141.405C1.41486 141.405 15.1635 149.021 19.5729 155.327C23.9822 161.632 41.2283 170.143 41.2283 170.143" stroke="#535461" stroke-width="2" stroke-miterlimit="10"/>
<path d="M32.7467 133.805C38.7271 138.122 41.2282 144.878 41.2282 144.878C41.2282 144.878 34.0198 144.632 28.0364 140.315C22.0529 135.998 19.5578 129.239 19.5578 129.239C19.5578 129.239 26.7632 129.485 32.7467 133.805Z" fill="#587EEC"/>
<path d="M19.5578 129.239C19.5578 129.239 27.0401 133.384 29.4389 136.815C31.8377 140.246 41.2282 144.878 41.2282 144.878" stroke="#535461" stroke-width="2" stroke-miterlimit="10"/>
<path d="M49.9116 144.536C43.0402 152.073 41.5865 161.924 41.5865 161.924C41.5865 161.924 51.275 159.55 58.1403 152.01C65.0056 144.47 66.4654 134.622 66.4654 134.622C66.4654 134.622 56.7829 136.998 49.9116 144.536Z" fill="#587EEC"/>
<path d="M66.4714 134.625C66.4714 134.625 57.5203 142.352 55.2449 147.675C52.9695 152.998 41.5865 161.924 41.5865 161.924" stroke="#535461" stroke-width="2" stroke-miterlimit="10"/>
<path d="M302.149 141.883C302.149 141.883 297.18 117.207 299.082 114.137C299.082 114.137 299.152 111.283 299.037 107.645C299.037 107.507 299.037 107.369 299.037 107.227C299.372 107.45 299.721 107.651 300.082 107.828C301.834 108.727 303.846 108.986 305.77 108.561L304.265 106.888C303.904 106.488 303.528 106.056 303.45 105.527C303.371 104.998 303.588 104.527 303.775 104.055C305.204 100.45 305.28 95.9168 302.526 93.165C300.199 90.8518 299.633 87.8657 297.108 85.7538C295.263 84.2067 294.249 81.9386 293.292 79.7456C292.482 77.892 291.666 76.0234 291.203 74.0587C290.842 72.5236 290.697 70.9344 290.201 69.4354C289.704 67.9363 288.774 66.4793 287.32 65.8094C286.803 65.5721 286.228 65.4369 285.755 65.1214C285.135 64.7039 284.762 64.0249 284.313 63.4301C282.035 60.426 274.405 62.1954 270.793 63.4151C269.812 63.7222 268.902 64.2251 268.121 64.8931L268.154 64.8391C268.181 64.794 268.214 64.7489 268.244 64.7039C267.849 65.0229 267.507 65.4033 267.233 65.8304C266.706 66.6626 266.487 67.6329 266.047 68.5341C265.517 69.6006 262.571 72.5777 263.838 73.7764C263.927 73.8569 264.028 73.9218 264.139 73.9686C264.615 74.1662 265.138 74.2185 265.644 74.1188L265.59 74.248C265.157 75.3056 264.935 76.4372 264.936 77.5796C264.936 82.5154 269.015 86.5169 274.05 86.5169C274.997 86.5178 275.938 86.3729 276.84 86.0873C276.861 86.2014 276.879 86.3156 276.9 86.4298C276.9 86.4748 276.915 86.5199 276.921 86.5649L276.762 86.7873C276.754 86.7735 276.745 86.7605 276.735 86.7482L272.009 93.3393C271.287 93.847 267.128 96.8511 266.893 99.1042C266.646 101.571 266.399 104.458 266.399 104.458L266.366 105.076C266.16 105.249 265.918 105.374 265.658 105.444C265.398 105.514 265.127 105.527 264.861 105.482C263.386 105.242 263.386 110.889 263.386 110.889C263.386 110.889 262.405 111.791 261.731 111.01C261.057 110.229 259.275 112.875 259.275 112.875L248.109 113.356L247.853 113.371L247.251 111.511C247.186 111.315 247.046 111.152 246.862 111.058C246.678 110.965 246.464 110.947 246.267 111.01C246.22 111.025 246.175 111.044 246.131 111.067L246.089 111.091L246.011 111.145L245.972 111.181C245.95 111.2 245.93 111.221 245.912 111.244L245.876 111.286L245.857 111.304C245.788 111.4 245.742 111.511 245.723 111.628C245.704 111.744 245.713 111.864 245.749 111.977L246.267 113.572C244.112 114.005 241.909 115.224 243.705 118.583L234.598 116.904L237.544 119.373L252.756 122.506C252.554 122.867 252.687 123.39 253.316 124.126C256.024 127.301 260.961 128.163 262.947 128.385C263.472 129.557 264.127 130.665 264.9 131.69L264.729 134.853C264.729 134.853 259.699 158.965 258.778 160.187C259.243 159.661 259.669 159.102 260.052 158.514C258.592 163.468 256.551 170.248 256.015 171.263C255.155 172.886 254.357 179.45 255.338 179.87C255.639 179.999 256.5 179.936 257.728 179.843V180.387L257.674 200.992C257.674 200.992 257.921 213.631 257.243 214.835C256.566 216.04 256.386 218.567 256.386 218.567C256.386 218.567 253.677 223.55 251.531 225.554C251.516 225.57 251.5 225.584 251.483 225.596L251.417 225.128C251.417 225.128 248.837 228.378 243.131 228.195C243.131 228.195 239.696 230.424 244.789 230.544C249.882 230.664 256.386 230.364 256.386 230.364C256.386 230.364 260.927 223.454 264.732 224.356V229.592H265.897V224.271C266.437 223.916 266.899 223.456 267.256 222.917C267.612 222.379 267.855 221.773 267.97 221.138C268.07 220.483 267.997 219.814 267.758 219.196C267.52 218.578 267.124 218.033 266.61 217.614C266.379 217.406 266.194 217.152 266.066 216.869C265.938 216.585 265.87 216.279 265.866 215.968L265.824 216.004C265.824 215.899 265.797 215.791 265.785 215.68C265.451 212.976 265.033 207.397 266.511 203.27C268.536 197.61 269.15 189.727 267.675 185.034C267.2 183.534 266.809 182.009 266.505 180.465C266.468 180.27 266.435 180.084 266.405 179.909C267.413 180.046 268.412 180.246 269.394 180.51C272.81 181.45 280.283 181.625 286.664 181.574C286.679 181.748 286.697 181.931 286.718 182.114C286.832 183.388 287.07 184.648 287.429 185.876C288.229 188.279 288.596 198.874 288.596 198.874C288.596 198.874 289.629 207.586 289.066 211.131C288.765 213.102 288.464 215.082 288.292 217.07V217.11C288.292 217.11 286.601 221.916 285.364 224.527C285.334 224.593 285.301 224.659 285.271 224.722C284.941 224.752 284.616 224.824 284.304 224.935C284.304 224.935 282.646 228.24 280.994 228.787C279.341 229.333 279.889 231.133 283.63 230.472C287.371 229.811 293.021 229.27 293.021 229.27L293.265 225.9L294.414 224.464L294.113 227.825L295.338 227.585L295.176 223.496L297.057 221.147C297.057 221.147 299.329 219.128 295.952 215.157V215.244C295.916 215.187 295.883 215.127 295.844 215.07V215.052C295.284 214.187 294.839 212.573 295.654 209.71C297.129 204.537 297.987 199.842 297.987 199.842C297.987 199.842 301.28 187.263 297.322 181.312H297.496C297.091 180.475 296.804 179.585 296.645 178.669C296.624 178.561 296.606 178.449 296.59 178.335C299.519 178.167 302.393 177.638 304.738 176.497C304.729 176.485 303.317 146.636 302.149 141.883ZM264.97 121.064V121.124L264.368 121.155L264.97 121.064ZM262.905 121.35C262.806 121.372 262.713 121.416 262.634 121.479C262.375 121.844 262.213 122.269 262.161 122.714L261.222 122.503C261.222 122.503 260.563 122.362 259.615 122.203L259.167 121.752C260.401 121.65 261.683 121.5 262.905 121.35Z" fill="url(#paint1_linear_6_207)"/>
<path d="M293.975 223.538L293.617 227.795L294.818 227.555L294.637 222.938L293.975 223.538Z" fill="#1D2366"/>
<path d="M266.577 203.326C265.129 207.442 265.538 212.997 265.863 215.694C265.984 216.692 266.095 217.299 266.095 217.299C266.095 217.299 263.931 222.219 263.75 222.406C263.57 222.592 257.382 226.362 257.382 226.362L253.057 228.883C253.057 228.883 248.669 226.963 250.772 226.302C251.202 226.13 251.589 225.866 251.907 225.53C254.014 223.532 256.659 218.566 256.659 218.566C256.659 218.566 256.84 216.046 257.502 214.847C258.164 213.649 257.924 201.052 257.924 201.052L257.975 180.519V177.842L266.206 177.902C266.258 178.811 266.377 179.715 266.562 180.606C266.857 182.145 267.24 183.665 267.708 185.16C269.159 189.844 268.557 197.688 266.577 203.326Z" fill="#FFB0B1"/>
<path opacity="0.1" d="M266.095 217.299C266.095 217.299 263.931 222.22 263.751 222.406C263.57 222.592 257.382 226.362 257.382 226.362L253.057 228.883C253.057 228.883 248.669 226.963 250.772 226.302C251.202 226.13 251.589 225.867 251.907 225.53L252.094 226.843L253.535 226.783L265.875 215.701C265.984 216.692 266.095 217.299 266.095 217.299Z" fill="black"/>
<path d="M265.945 215.98L253.535 227.137L252.094 227.197L251.793 225.095C251.793 225.095 249.271 228.333 243.666 228.153C243.666 228.153 240.301 230.373 245.289 230.493C250.276 230.613 256.644 230.313 256.644 230.313C256.644 230.313 261.093 223.403 264.816 224.304V229.523H265.96V224.256C266.492 223.899 266.945 223.438 267.294 222.901C267.643 222.364 267.879 221.762 267.988 221.132C268.087 220.483 268.017 219.819 267.785 219.204C267.552 218.59 267.165 218.045 266.661 217.623C266.436 217.412 266.256 217.158 266.133 216.875C266.01 216.593 265.946 216.288 265.945 215.98Z" fill="#1D2366"/>
<path d="M295.119 209.743C294.318 212.597 294.754 214.205 295.302 215.067V215.085C296.005 216.149 296.493 217.34 296.741 218.591L296.789 218.861L291.143 227.077L288.079 228.279C288.079 228.279 283.152 226.6 284.052 226.119C284.277 226.002 284.629 225.377 285.033 224.515C286.237 221.916 287.898 217.122 287.898 217.122V217.083C288.073 215.103 288.35 213.129 288.657 211.164C289.207 207.629 288.196 198.95 288.196 198.95C288.196 198.95 287.835 188.396 287.052 185.996C286.699 184.775 286.464 183.524 286.351 182.259C286.189 180.757 286.152 179.519 286.152 179.519C286.152 179.519 289.397 175.013 295.344 179.879C295.82 180.267 296.238 180.721 296.587 181.225C300.696 187.059 297.388 199.911 297.388 199.911C297.388 199.911 296.56 204.585 295.119 209.743Z" fill="#FFB0B1"/>
<path opacity="0.1" d="M296.798 218.861L291.152 227.077L288.088 228.279C288.088 228.279 283.161 226.6 284.061 226.119C284.286 226.002 284.639 225.377 285.042 224.515C287.128 224.497 288.208 226.479 288.208 226.479L290.851 226.059C290.851 226.059 294.336 219.221 295.119 218.804C295.901 218.386 295.239 215.683 295.239 215.683V214.995C295.26 215.019 295.278 215.046 295.302 215.07V215.088C296.005 216.152 296.493 217.343 296.741 218.594L296.798 218.861Z" fill="black"/>
<path d="M288.389 226.657C288.389 226.657 286.884 223.899 284 224.917C284 224.917 282.378 228.222 280.756 228.757C279.134 229.291 279.675 231.094 283.341 230.436C287.007 229.778 292.533 229.234 292.533 229.234L292.774 225.873L296.5 221.135C296.5 221.135 298.721 219.125 295.417 215.169V215.857C295.417 215.857 296.079 218.561 295.296 218.978C294.514 219.396 291.04 226.236 291.04 226.236L288.389 226.657Z" fill="#1D2366"/>
<path opacity="0.1" d="M266.216 177.897C266.268 178.805 266.386 179.709 266.571 180.6C263.182 180.105 260.037 180.351 257.975 180.513V177.837L266.216 177.897Z" fill="black"/>
<path opacity="0.1" d="M296.921 181.973C296.921 181.973 292.106 182.208 286.363 182.256C286.201 180.754 286.164 179.516 286.164 179.516C286.164 179.516 289.409 175.01 295.356 179.876C295.832 180.265 296.25 180.718 296.599 181.222C296.693 181.478 296.8 181.729 296.921 181.973Z" fill="black"/>
<path d="M296.921 181.432C296.921 181.432 275.829 182.451 269.4 180.651C262.971 178.852 256.599 180.411 255.639 179.993C254.679 179.576 255.459 173.036 256.301 171.417C257.144 169.797 261.767 153.422 261.767 153.422L266.216 130.272L270.902 128.983L271.233 128.89L279.398 126.643L285.382 124.994C285.382 124.994 297.28 171.356 296.259 174.775C295.889 176.084 295.829 177.461 296.085 178.798C296.241 179.71 296.522 180.597 296.921 181.432Z" fill="#1D2366"/>
<path d="M250.709 114.44C250.709 114.44 246.496 118.946 249.686 121.458C252.876 123.969 254.974 121.698 254.974 121.698L250.709 114.44Z" fill="#C7DAF5"/>
<path opacity="0.1" d="M250.709 114.44C250.709 114.44 246.496 118.946 249.686 121.458C252.876 123.969 254.974 121.698 254.974 121.698L250.709 114.44Z" fill="black"/>
<path d="M284.753 84.8136C284.753 84.8136 284.259 85.2822 283.516 85.9732C282.456 86.9615 280.888 88.4065 279.498 89.6172C277.571 91.2905 275.982 92.5192 276.551 91.4707C277.12 90.4223 277.012 88.5958 276.729 86.8864C276.708 86.7723 276.69 86.6581 276.669 86.547C276.434 85.2916 276.124 84.0516 275.739 82.8339C275.739 82.8339 278.851 78.8203 280.572 77.2372C281.213 76.6363 281.662 76.39 281.689 76.8076C281.719 77.3694 282.14 78.6101 282.664 79.9259C282.679 79.9679 282.694 80.007 282.712 80.049C283.061 80.9503 283.456 81.8755 283.802 82.6746C284.331 83.9003 284.753 84.8136 284.753 84.8136Z" fill="#FFB0B1"/>
<path opacity="0.1" d="M282.712 80.0489C282.42 81.619 281.71 83.0819 280.658 84.2846C279.605 85.4874 278.248 86.3859 276.729 86.8863C276.489 85.515 276.159 84.1611 275.739 82.8338C275.739 82.8338 281.599 75.2784 281.689 76.8075C281.71 77.3873 282.167 78.673 282.712 80.0489Z" fill="black"/>
<path opacity="0.1" d="M276.145 88.9052L276.903 87.8387C276.903 87.8387 277.406 90.897 279.254 89.5481C281.102 88.1992 281.192 99.6991 281.192 99.6991L279.209 129.299L264.876 128.443L265.283 114.14L266.905 106.93L270.917 96.4486L273.304 92.9848L276.145 88.9052Z" fill="black"/>
<path d="M281.192 99.8823L279.386 126.646L279.197 129.482L271.206 129.004L270.905 128.986L264.885 128.626L265.292 114.32L266.914 107.11L270.926 96.6288L273.313 93.1651L276.154 89.0704L276.912 88.007C276.912 88.007 277.415 91.0652 279.263 89.7163L279.302 89.6893C281.108 88.5477 281.192 99.8823 281.192 99.8823Z" fill="#1D2366"/>
<path d="M267.116 104.605C267.116 104.605 266.396 106.107 264.951 105.864C263.507 105.62 263.51 111.271 263.51 111.271C263.51 111.271 262.55 112.172 261.888 111.391C261.225 110.61 259.48 113.251 259.48 113.251L248.542 113.731C248.542 113.731 253.409 115.951 252.455 122.669C252.455 122.669 268.979 121.647 269.52 120.088C270.062 118.529 267.116 104.605 267.116 104.605Z" fill="white"/>
<path opacity="0.03" d="M267.116 104.605C267.116 104.605 266.396 106.107 264.951 105.864C263.507 105.62 263.51 111.271 263.51 111.271C263.51 111.271 262.55 112.172 261.888 111.391C261.225 110.61 259.48 113.251 259.48 113.251L248.542 113.731C248.542 113.731 253.409 115.951 252.455 122.669C252.455 122.669 268.979 121.647 269.52 120.088C270.062 118.529 267.116 104.605 267.116 104.605Z" fill="black"/>
<path d="M235.329 117.261L238.213 119.719L261.948 124.696L259.004 121.698L235.329 117.261Z" fill="white"/>
<path d="M276.19 89.8515C275.796 90.4523 274.667 93.5285 273.725 96.2142C272.939 98.4523 272.283 100.42 272.283 100.42C272.283 100.42 270.751 110.376 269.969 112.175C269.186 113.975 269.611 120.992 269.611 120.992L266.694 138.323C266.694 138.323 265.373 147.26 263.332 152.599C261.319 157.853 259.076 160.316 259.007 160.395C259.91 159.175 264.831 135.16 264.831 135.16L266.456 104.872C266.456 104.872 266.694 101.994 266.935 99.5338C267.176 97.0734 272.051 93.7148 272.051 93.7148L276.753 87.0426C277.225 87.6735 276.909 88.773 276.19 89.8515Z" fill="white"/>
<path d="M263.931 128.776C263.931 128.776 257.009 128.476 253.656 124.456C250.303 120.437 261.406 122.852 261.406 122.852L264.292 123.513L263.931 128.776Z" fill="#FFB0B1"/>
<path opacity="0.1" d="M296.259 174.778C295.889 176.087 295.829 177.465 296.085 178.801C288.533 179.335 280.455 177.299 280.455 177.299C278.95 178.681 274.986 180.717 274.986 180.717L272.825 153.981C271.444 150.376 270.902 131.489 270.902 131.489C270.902 131.489 271.025 130.5 271.203 129.019C271.203 128.983 271.203 128.944 271.218 128.908C271.757 124.771 272.825 117.006 273.349 115.957C274.071 114.515 271.128 110.679 271.128 110.679L272.467 99.2784L272.629 97.9025C275.453 96.6437 277.617 92.6242 277.617 92.6242L279.278 89.7192C281.084 88.5626 281.177 99.8972 281.177 99.8972L279.371 126.661L285.355 125.012C285.355 125.012 297.28 171.36 296.259 174.778Z" fill="black"/>
<path d="M304.009 176.626C295.778 180.706 280.816 176.926 280.816 176.926C279.311 178.308 275.347 180.345 275.347 180.345L273.183 153.608C271.805 150.003 271.263 131.116 271.263 131.116C271.263 131.116 273.003 117.024 273.725 115.585C273.936 115.164 273.833 114.54 273.584 113.867C272.355 110.664 271.904 107.216 272.265 103.806L272.843 98.906L273.003 97.5332C275.829 96.2714 277.993 92.2519 277.993 92.2519L279.498 89.6203L282.267 84.7716L283.579 82.4764L283.802 82.6777L285.502 84.2158C285.502 84.2158 286.225 84.8167 287.308 85.7179C289.665 87.7006 293.737 91.1914 295.838 93.3274C297.686 95.208 298.27 102.523 298.438 108.03C298.55 111.656 298.484 114.497 298.484 114.497C296.62 117.559 301.493 142.136 301.493 142.136C302.628 146.885 304.009 176.626 304.009 176.626Z" fill="white"/>
<path opacity="0.03" d="M288.208 92.1918C288.208 92.1918 282.559 102.926 283.215 107.005C283.871 111.085 285.737 115.702 284.837 116.781C284.528 117.189 284.128 117.521 283.669 117.75C283.21 117.978 282.705 118.098 282.192 118.099C281.289 118.16 278.881 119.839 278.881 120.019C278.881 120.199 276.657 120.199 274.667 121.04C272.678 121.882 269.74 122.359 269.74 122.359C269.74 122.359 264.022 122.179 263.489 122.72C262.956 123.261 262.408 126.496 263.549 129.077C264.69 131.657 265.957 133.583 266.914 133.934C267.871 134.286 273.945 132.255 278.872 131.774C283.799 131.294 289.147 127.397 289.147 127.397C289.147 127.397 295.037 125.294 296.07 121.758C297.102 118.223 294.809 98.7889 294.809 98.7889C294.809 98.7889 293.075 89.7314 288.208 92.1918Z" fill="black"/>
<path opacity="0.03" d="M287.486 91.2906C287.486 91.2906 281.836 102.027 282.499 106.104C283.161 110.181 285.021 114.801 284.118 115.882C283.81 116.291 283.411 116.623 282.952 116.852C282.493 117.081 281.988 117.201 281.475 117.201C280.572 117.261 278.164 118.941 278.164 119.121C278.164 119.301 275.94 119.301 273.951 120.139C271.961 120.977 269.024 121.458 269.024 121.458C269.024 121.458 263.305 121.278 262.775 121.819C262.246 122.359 261.692 125.598 262.836 128.175C263.979 130.753 265.243 132.682 266.201 133.033C267.158 133.384 273.231 131.354 278.158 130.876C283.085 130.398 288.434 126.496 288.434 126.496C288.434 126.496 294.321 124.393 295.341 120.86C296.362 117.327 294.08 97.8876 294.08 97.8876C294.08 97.8876 292.353 88.8332 287.486 91.2906Z" fill="black"/>
<path d="M288.031 91.651C288.031 91.651 282.381 102.388 283.043 106.464C283.705 110.541 285.566 115.161 284.666 116.24C284.358 116.65 283.958 116.983 283.499 117.212C283.04 117.442 282.533 117.561 282.02 117.562C281.117 117.622 278.709 119.301 278.709 119.478C278.709 119.656 276.488 119.659 274.496 120.5C272.503 121.341 269.569 121.818 269.569 121.818C269.569 121.818 263.85 121.638 263.317 122.179C262.784 122.72 262.237 125.958 263.377 128.536C264.518 131.113 265.785 133.042 266.742 133.393C267.699 133.745 273.773 131.714 278.7 131.233C283.627 130.753 288.976 126.856 288.976 126.856C288.976 126.856 294.866 124.754 295.898 121.218C296.93 117.682 294.652 98.2481 294.652 98.2481C294.652 98.2481 292.894 89.2056 288.031 91.651Z" fill="white"/>
<path opacity="0.1" d="M287.907 120.449C287.907 120.449 283.392 119.547 284.963 121.049C286.535 122.551 286.526 123.867 288.449 123.807C290.372 123.747 287.907 120.449 287.907 120.449Z" fill="black"/>
<path opacity="0.1" d="M295.537 152.767C295.537 152.767 293.496 154.146 297.4 157.324C301.304 160.503 295.537 152.767 295.537 152.767Z" fill="black"/>
<path opacity="0.1" d="M291.642 164.102C291.642 164.282 290.92 170.711 293.623 172.318C296.325 173.925 291.642 164.102 291.642 164.102Z" fill="black"/>
<path d="M248.729 113.716C246.55 113.791 241.842 114.455 244.283 119.001C246.441 123.023 250.068 120.334 252.109 118.295C251.611 116.393 250.401 114.754 248.729 113.716Z" fill="#FFB0B1"/>
<path d="M252.136 118.259L252.226 118.166L252.136 118.259Z" fill="#FFB0B1"/>
<path opacity="0.1" d="M287.308 85.9009C284.997 87.4781 283.058 88.8089 282.679 89.0853C281.644 89.8514 279.669 94.3485 278.396 96.6437C277.382 98.4912 274.086 98.9659 272.843 99.0831L273.003 97.7102C275.829 96.4484 277.993 92.4289 277.993 92.4289L283.579 82.6534L285.502 84.3988C285.502 84.3988 286.225 84.9997 287.308 85.9009Z" fill="black"/>
<path d="M287.308 85.7207C284.997 87.2979 283.058 88.6287 282.679 88.9081C281.644 89.6712 279.669 94.1683 278.396 96.4635C277.382 98.311 274.086 98.7857 272.843 98.9029L273.003 97.53C275.829 96.2682 277.993 92.2487 277.993 92.2487L283.579 82.4733L285.502 84.2127C285.502 84.2127 286.225 84.8075 287.308 85.7207Z" fill="#DCE7FF"/>
<path d="M282.86 78.0663C282.861 79.8697 282.313 81.6308 281.289 83.1162C280.079 84.8726 278.278 86.1378 276.214 86.6824C274.149 87.227 271.957 87.0148 270.036 86.0844C268.115 85.154 266.591 83.567 265.742 81.6113C264.893 79.6557 264.774 77.461 265.407 75.4254C266.041 73.3899 267.384 71.6484 269.194 70.5168C271.003 69.3853 273.159 68.9388 275.271 69.2583C277.382 69.5778 279.309 70.6421 280.701 72.2581C282.094 73.8742 282.859 75.9349 282.86 78.0663Z" fill="#FFB0B1"/>
<path opacity="0.1" d="M298.438 108.032C297.216 107.282 296.221 106.215 295.558 104.944C295.055 103.953 294.721 102.808 293.863 102.105C293.09 101.474 292.058 101.321 291.094 101.039C287.928 100.105 285.274 97.2206 285.174 93.9281C285.126 92.3779 285.611 90.8308 285.391 89.2957C285.266 88.4269 284.92 87.6046 284.386 86.9074C284.12 86.574 283.83 86.2616 283.516 85.9731C283.094 85.5766 282.652 85.192 282.267 84.7715C282.024 84.511 281.812 84.2238 281.635 83.9153C281.492 83.6628 281.376 83.396 281.289 83.1192C280.687 81.2806 281.234 79.0997 280.572 77.2401L280.536 77.1379C280.286 76.477 279.778 75.8161 279.07 75.7651C278.363 75.714 277.758 76.2998 277.084 76.5612C275.672 77.1079 274.149 76.1766 272.973 75.2273C271.796 74.278 270.468 73.1935 268.973 73.4038C267.982 73.545 267.2 74.2179 266.288 74.5664C266.082 74.646 265.869 74.7073 265.653 74.7497C266.425 72.8286 267.843 71.2357 269.663 70.2447C271.484 69.2537 273.593 68.9266 275.629 69.3193C277.665 69.7121 279.501 70.8004 280.82 72.3971C282.14 73.9939 282.861 75.9994 282.86 78.0692C282.861 78.6943 282.795 79.3176 282.664 79.9288C282.679 79.9708 282.694 80.0099 282.712 80.052C283.061 80.9532 283.456 81.8785 283.802 82.6776L285.502 84.2157C285.502 84.2157 286.225 84.8165 287.308 85.7178C289.665 87.7005 293.737 91.1913 295.838 93.3272C297.686 95.2138 298.264 102.526 298.438 108.032Z" fill="black"/>
<path d="M266.183 69.0779C266.613 68.2037 266.827 67.2243 267.341 66.3952C268.097 65.1935 269.415 64.4245 270.769 63.9588C274.306 62.7422 281.779 60.9757 284.012 63.9588C284.452 64.5597 284.816 65.2266 285.424 65.6412C285.888 65.9566 286.447 66.0918 286.956 66.3291C288.38 66.996 289.289 68.45 289.773 69.9341C290.258 71.4181 290.402 73.0103 290.757 74.5394C291.212 76.5011 292.009 78.3607 292.804 80.2082C293.74 82.3892 294.733 84.6513 296.539 86.1924C299.004 88.2953 299.549 91.2724 301.836 93.5796C304.545 96.3194 304.458 100.841 303.061 104.431C302.878 104.902 302.67 105.395 302.742 105.897C302.815 106.398 303.188 106.855 303.54 107.254L305.021 108.922C301.517 109.766 297.553 107.939 295.922 104.734C295.42 103.743 295.085 102.601 294.225 101.895C293.454 101.264 292.419 101.114 291.459 100.832C288.292 99.8943 285.638 97.0073 285.538 93.7148C285.49 92.1677 285.975 90.6205 285.755 89.0884C285.633 88.2138 285.285 87.3857 284.747 86.6851C283.919 85.6066 282.67 84.8826 281.996 83.681C280.855 81.6712 281.722 79.0606 280.9 76.9037C280.648 76.2427 280.142 75.5818 279.435 75.5308C278.727 75.4797 278.122 76.0655 277.445 76.3269C276.037 76.8736 274.514 75.9453 273.337 74.993C272.16 74.0407 270.833 72.9592 269.334 73.1725C268.344 73.3107 267.564 73.9836 266.652 74.3351C265.978 74.5935 264.611 74.8248 264.021 74.257C262.775 73.1124 265.662 70.1474 266.183 69.0779Z" fill="#591D4B"/>
<path opacity="0.1" d="M296.759 103.743C296.253 102.751 295.922 101.61 295.061 100.907C294.291 100.276 293.255 100.123 292.292 99.8403C289.129 98.906 286.474 96.019 286.372 92.7265C286.324 91.1794 286.809 89.6292 286.592 88.0971C286.466 87.2281 286.119 86.4059 285.584 85.7089C284.753 84.6304 283.504 83.9064 282.833 82.7047C281.692 80.698 282.559 78.0874 281.734 75.9274C281.484 75.2695 280.976 74.6086 280.271 74.5545C279.567 74.5004 278.956 75.0923 278.282 75.3536C276.873 75.9004 275.347 74.9691 274.174 74.0198C273 73.0705 271.666 71.986 270.17 72.1963C269.18 72.3375 268.398 73.0104 267.489 73.3589C266.815 73.6172 265.445 73.8515 264.855 73.2838C263.615 72.0821 266.502 69.123 267.019 68.0596C267.45 67.1824 267.663 66.206 268.181 65.3769C268.208 65.3318 268.238 65.2868 268.268 65.2417C267.881 65.5619 267.547 65.9411 267.278 66.3652C266.763 67.1944 266.55 68.1677 266.119 69.0479C265.599 70.1114 262.712 73.0795 263.955 74.2721C264.557 74.8429 265.912 74.6086 266.586 74.3502C267.489 73.9987 268.277 73.3258 269.268 73.1876C270.772 72.9743 272.097 74.0588 273.271 75.0081C274.444 75.9574 275.979 76.8887 277.382 76.342C278.056 76.0806 278.646 75.4918 279.368 75.5459C280.091 75.5999 280.572 76.2579 280.834 76.9188C281.656 79.0757 280.789 81.6863 281.93 83.6961C282.604 84.8767 283.853 85.6157 284.681 86.7002C285.219 87.4008 285.567 88.2289 285.689 89.1035C285.909 90.6356 285.424 92.1828 285.472 93.7299C285.572 97.0344 288.226 99.9094 291.392 100.847C292.347 101.129 293.388 101.279 294.158 101.91C295.022 102.616 295.362 103.758 295.856 104.749C297.487 107.954 301.451 109.781 304.955 108.937L304.256 108.15C301.219 108.195 298.146 106.47 296.759 103.743Z" fill="black"/>
<path opacity="0.1" d="M276.009 90.0318C275.615 90.6326 274.486 93.7088 273.544 96.3945C272.663 96.0521 271.862 93.8681 271.862 93.8681L276.563 87.1929C277.045 87.8538 276.729 88.9503 276.009 90.0318Z" fill="black"/>
<path d="M276.19 89.8514C275.796 90.4522 274.667 93.5285 273.725 96.2142C272.843 95.8747 272.043 93.6877 272.043 93.6877L276.744 87.0155C277.225 87.6734 276.909 88.7729 276.19 89.8514Z" fill="#DCE7FF"/>
<path d="M248.855 120.542L246.249 112.337C246.218 112.241 246.206 112.14 246.215 112.04C246.223 111.939 246.251 111.841 246.298 111.752C246.344 111.662 246.408 111.582 246.485 111.518C246.563 111.453 246.652 111.403 246.748 111.373C246.942 111.313 247.152 111.331 247.333 111.425C247.513 111.518 247.649 111.679 247.711 111.872L250.318 120.067L250.059 121.782L248.855 120.542Z" fill="#BE8B87"/>
<path opacity="0.1" d="M246.496 111.616C246.69 111.555 246.901 111.573 247.082 111.667C247.263 111.76 247.4 111.921 247.462 112.115L250.068 120.31L249.873 121.596L250.062 121.795L250.321 120.079L247.699 111.884C247.637 111.691 247.501 111.53 247.321 111.437C247.14 111.343 246.93 111.325 246.736 111.385C246.573 111.438 246.432 111.544 246.336 111.686C246.387 111.658 246.441 111.635 246.496 111.616Z" fill="white"/>
<path d="M248.855 120.542L250.318 120.079L250.104 121.485L250.059 121.795L249.632 121.35L248.855 120.542Z" fill="#EFC8C4"/>
<path d="M249.632 121.35C249.657 121.318 249.689 121.291 249.725 121.272C249.746 121.258 249.771 121.251 249.796 121.251C249.821 121.251 249.845 121.258 249.867 121.272C249.887 121.296 249.904 121.324 249.918 121.353C249.938 121.386 249.965 121.414 249.997 121.436C250.029 121.457 250.066 121.471 250.104 121.476L250.059 121.776L249.632 121.35Z" fill="#727A9C"/>
<path d="M246.234 115.251C246.234 115.251 251.462 115.221 250.231 117.441C249 119.662 247.076 119.929 247.076 119.929L246.234 115.251Z" fill="#FFB0B1"/>
<path d="M213.719 15.6193H213.493C204.512 15.6193 196.569 20.3628 192 27.3624C187.431 20.3628 179.489 15.6193 170.507 15.6193H170.282C163.542 15.6834 157.099 18.3999 152.354 23.1785C147.61 27.9571 144.946 34.4116 144.942 41.1394C144.942 49.4939 148.608 61.3482 155.757 71.1026C169.376 89.6892 192 105.951 192 105.951C192 105.951 214.625 89.6922 228.241 71.1026C235.392 61.3482 239.055 49.4939 239.055 41.1394C239.052 34.4121 236.388 27.958 231.644 23.1795C226.9 18.401 220.459 15.6842 213.719 15.6193ZM210.489 72.5326C209.467 72.5287 208.469 72.2162 207.627 71.6361C206.785 71.056 206.139 70.2354 205.773 69.2821H200.404C200.05 69.2799 199.706 69.1675 199.419 68.9607C199.133 68.7539 198.918 68.463 198.805 68.1285L197.156 63.1687L191.937 81.3707C191.836 81.7211 191.623 82.0291 191.331 82.2485C191.039 82.4679 190.683 82.5868 190.318 82.5874H190.213C189.831 82.569 189.468 82.4205 189.183 82.1668C188.898 81.9131 188.709 81.5695 188.647 81.1935L183.269 48.9051L179.338 68.0113C179.248 68.3743 179.039 68.6967 178.744 68.927C178.448 69.1573 178.085 69.2823 177.71 69.2821H170.146C169.92 69.2917 169.693 69.2554 169.481 69.1754C169.269 69.0954 169.075 68.9733 168.911 68.8166C168.747 68.6598 168.617 68.4716 168.528 68.2633C168.439 68.055 168.393 67.8308 168.393 67.6043C168.393 67.3778 168.439 67.1536 168.528 66.9453C168.617 66.7369 168.747 66.5487 168.911 66.392C169.075 66.2352 169.269 66.1132 169.481 66.0332C169.693 65.9532 169.92 65.9169 170.146 65.9265H176.386L181.954 40.2381C182.045 39.8583 182.266 39.522 182.578 39.2867C182.89 39.0514 183.275 38.9316 183.666 38.9479C184.057 38.9642 184.43 39.1156 184.722 39.3762C185.013 39.6367 185.205 39.9902 185.264 40.3763L190.757 73.3136L195.434 57.0282C195.532 56.6852 195.738 56.3829 196.021 56.1663C196.305 55.9497 196.651 55.8306 197.009 55.8266H197.042C197.395 55.8267 197.74 55.9383 198.027 56.1454C198.313 56.3526 198.527 56.6447 198.637 56.9802L201.62 65.9355H205.707C205.997 65.0543 206.526 64.2703 207.235 63.6702C207.944 63.07 208.805 62.677 209.724 62.5345C210.642 62.392 211.582 62.5055 212.44 62.8626C213.298 63.2197 214.04 63.8064 214.585 64.558C215.13 65.3095 215.456 66.1968 215.528 67.1218C215.599 68.0467 215.414 68.9735 214.991 69.7997C214.568 70.6259 213.925 71.3195 213.132 71.8039C212.339 72.2882 211.428 72.5446 210.498 72.5446L210.489 72.5326Z" fill="#EC5863"/>
</g>
<defs>
<linearGradient id="paint0_linear_6_207" x1="108.518" y1="232.953" x2="108.518" y2="48.0969" gradientUnits="userSpaceOnUse">
<stop stop-color="#808080" stop-opacity="0.25"/>
<stop offset="0.54" stop-color="#808080" stop-opacity="0.12"/>
<stop offset="1" stop-color="#808080" stop-opacity="0.1"/>
</linearGradient>
<linearGradient id="paint1_linear_6_207" x1="67184.3" y1="139477" x2="67184.3" y2="44588.4" gradientUnits="userSpaceOnUse">
<stop stop-color="#808080" stop-opacity="0.25"/>
<stop offset="0.54" stop-color="#808080" stop-opacity="0.12"/>
<stop offset="1" stop-color="#808080" stop-opacity="0.1"/>
</linearGradient>
</defs>
</svg>
